<?xml version="1.0" standalone="no"?>
<!DOCTYPE svg PUBLIC "-//W3C//DTD SVG 20010904//EN"
 "http://www.w3.org/TR/2001/REC-SVG-20010904/DTD/svg10.dtd">
<svg version="1.0" xmlns="http://www.w3.org/2000/svg"
 width="827.000000pt" height="1017.000000pt" viewBox="0 0 827.000000 1017.000000"
 preserveAspectRatio="xMidYMid meet">

<g transform="translate(0.000000,1017.000000) scale(0.100000,-0.100000)"
fill="#000000" stroke="none">
<path d="M0 8790 c0 -1220 2 -1380 15 -1380 8 0 15 -7 15 -15 0 -8 -7 -15 -15
-15 -13 0 -15 -230 -14 -2017 1 -1761 3 -2000 15 -1878 7 77 20 199 29 270 27
238 34 309 45 465 11 149 32 279 86 515 14 61 32 139 39 175 8 36 23 106 34
155 11 50 25 119 30 155 6 36 26 142 46 235 78 371 123 557 159 645 13 31 31
88 40 127 26 106 124 290 224 421 72 95 96 120 152 152 36 21 117 75 180 120
63 45 135 93 160 108 83 47 111 72 105 92 -9 27 28 43 81 35 39 -6 53 -1 171
61 132 68 238 125 308 162 21 12 49 22 60 22 12 0 32 12 44 26 23 26 25 27
107 20 51 -4 85 -2 89 4 3 5 18 10 32 10 29 0 143 58 150 77 3 6 24 24 48 38
43 25 138 142 214 263 18 28 35 52 37 52 12 0 50 -28 70 -50 25 -29 74 -39 74
-15 0 8 5 15 10 15 6 0 10 -9 10 -21 0 -12 5 -19 13 -17 12 5 21 27 32 81 3
15 12 27 21 27 15 0 54 77 54 108 1 19 33 62 47 62 5 0 9 24 9 54 1 35 7 60
17 70 8 9 18 39 22 68 10 74 20 91 46 77 32 -17 34 -4 6 55 -14 30 -29 82 -33
115 -6 54 -5 61 10 55 9 -3 16 -14 16 -23 1 -14 2 -14 13 -1 24 30 42 21 62
-32 17 -44 26 -54 53 -62 20 -5 48 -27 69 -52 30 -38 38 -42 55 -33 13 7 18
17 15 30 -6 23 -3 25 53 33 52 7 90 18 144 41 21 9 40 14 43 12 2 -3 -3 -26
-11 -51 -9 -26 -16 -49 -16 -51 0 -11 30 -4 44 11 9 8 16 12 16 8 0 -4 9 2 20
14 11 12 20 26 20 32 0 19 72 7 95 -15 12 -11 30 -25 41 -32 16 -10 17 -13 4
-22 -13 -9 -13 -12 -1 -20 7 -5 10 -14 7 -20 -4 -6 -2 -11 3 -11 6 0 11 -9 11
-20 0 -11 6 -20 14 -20 7 0 20 -9 27 -20 11 -17 26 -21 74 -22 83 -2 99 -11
92 -56 -6 -31 -2 -39 32 -73 39 -40 61 -38 61 4 0 10 5 27 10 38 7 12 7 26 2
37 -19 36 -23 107 -7 127 15 20 15 20 38 -6 36 -40 55 -43 93 -14 22 17 45 25
73 25 27 0 41 4 41 13 0 13 44 16 56 5 3 -4 2 -32 -1 -63 -6 -43 -11 -55 -22
-51 -8 3 -11 1 -8 -4 8 -14 -40 -54 -97 -82 -62 -29 -65 -53 -7 -44 43 7 122
54 138 84 18 32 24 2 8 -39 l-16 -40 29 6 c26 6 30 3 36 -22 4 -15 13 -41 21
-57 23 -44 19 -97 -7 -118 -27 -22 -60 -24 -60 -3 0 8 -10 21 -22 29 -19 12
-31 13 -65 3 -56 -15 -74 0 -49 37 9 15 21 26 26 26 14 0 12 31 -5 60 -11 19
-14 21 -15 8 0 -11 -8 -18 -19 -18 -26 0 -61 -46 -61 -79 0 -29 34 -91 50 -91
6 0 15 -11 22 -25 6 -13 14 -22 19 -20 12 8 49 -46 49 -72 0 -20 -3 -23 -22
-17 -12 3 -42 6 -67 6 -24 -1 -50 3 -56 8 -16 13 -75 1 -82 -16 -3 -8 -9 -12
-13 -9 -4 3 -11 -2 -14 -11 -4 -9 -5 -18 -4 -18 28 -16 68 -26 103 -26 38 0
47 -4 69 -33 24 -32 34 -76 20 -90 -4 -3 -23 9 -43 28 -20 19 -41 35 -48 35
-6 0 -13 6 -16 13 -7 21 -17 2 -23 -44 -3 -24 -7 -50 -10 -57 -2 -8 5 -26 16
-42 33 -47 27 -81 -21 -112 l-42 -27 -28 20 c-17 12 -30 15 -34 9 -11 -17 -45
-11 -79 15 -18 14 -38 25 -43 25 -6 0 -13 9 -16 21 -5 18 -12 20 -56 18 -28
-2 -54 0 -57 4 -10 9 -64 9 -65 0 -3 -29 -9 -47 -19 -53 -19 -12 -110 14 -110
31 0 5 -6 9 -13 9 -7 0 -30 9 -52 20 -21 11 -41 16 -44 12 -4 -4 -19 -12 -35
-17 -25 -8 -30 -16 -31 -45 -2 -42 -21 -90 -35 -90 -5 0 -10 -6 -10 -14 0 -7
-22 -23 -49 -35 -40 -17 -51 -27 -56 -51 -4 -17 -14 -37 -23 -46 -15 -15 -16
-15 -23 2 -6 15 -8 14 -8 -8 -1 -16 -5 -28 -11 -28 -5 0 -10 -7 -10 -15 0 -8
-4 -15 -10 -15 -5 0 -10 7 -10 16 0 8 -4 12 -10 9 -5 -3 -10 -15 -10 -26 0
-10 -6 -19 -14 -19 -18 0 -15 -52 3 -58 6 -2 11 -14 11 -26 0 -17 6 -22 21
-22 12 1 24 -5 26 -12 3 -7 -1 -10 -10 -6 -15 5 -31 -21 -21 -37 3 -5 0 -9 -5
-9 -6 0 -11 5 -11 11 0 8 -24 9 -77 5 -43 -3 -98 -6 -123 -6 -127 0 -324 55
-460 128 -47 25 -95 50 -107 56 -13 6 -23 14 -23 19 0 4 -10 7 -23 7 -12 0
-28 9 -35 20 -7 11 -19 20 -27 20 -9 0 -28 8 -43 17 -15 9 -22 11 -15 4 6 -8
9 -19 7 -26 -3 -7 5 -15 16 -18 13 -3 19 -10 15 -17 -4 -7 -15 -10 -25 -7 -12
3 -20 -2 -24 -17 -4 -12 -9 -17 -13 -11 -13 16 -51 35 -72 35 -11 0 -24 8 -30
17 -5 10 -12 15 -16 11 -7 -7 14 -48 30 -60 20 -15 -21 -8 -43 8 -22 15 -23
15 -18 -12 3 -15 10 -32 16 -38 27 -27 -4 -72 -34 -47 -16 13 -27 4 -19 -17 4
-10 2 -13 -5 -8 -7 4 -12 16 -12 28 0 15 -3 18 -13 10 -8 -7 -18 -7 -27 -2
-10 6 -18 2 -28 -11 -16 -24 -9 -49 14 -49 12 0 15 -7 12 -25 -5 -24 10 -47
28 -44 19 3 34 -2 34 -11 0 -18 45 -80 58 -80 14 0 16 -16 2 -25 -5 -3 -8 -16
-6 -28 3 -12 5 -24 5 -27 1 -2 6 1 13 8 18 18 41 15 61 -8 21 -25 21 -30 2
-30 -8 0 -15 -7 -15 -15 0 -10 -10 -15 -34 -15 -19 0 -38 -4 -41 -10 -11 -18
-23 -10 -27 20 -3 16 0 34 6 40 7 7 4 10 -10 12 -10 0 -24 2 -30 2 -6 1 -19 9
-28 19 -10 9 -22 17 -27 17 -5 0 -8 3 -8 8 4 24 -4 32 -31 32 -22 0 -30 5 -30
18 0 21 -52 51 -58 33 -2 -6 -24 -11 -49 -11 -37 0 -46 -4 -50 -20 -4 -15 -9
-18 -18 -10 -10 8 -19 8 -35 -2 -17 -11 -22 -11 -29 0 -9 16 -46 13 -43 -3 1
-5 11 -10 22 -10 11 0 20 -3 20 -7 0 -26 -1 -30 -15 -24 -27 10 -15 -12 25
-47 22 -19 40 -39 40 -46 0 -6 12 -16 26 -21 20 -8 25 -16 22 -38 -2 -22 -7
-26 -25 -24 -13 2 -23 -2 -23 -7 0 -6 -9 -11 -20 -11 -11 0 -20 7 -20 15 0 10
-10 15 -32 14 -18 0 -51 2 -73 5 -23 3 -42 0 -46 -6 -4 -6 -35 -12 -70 -13
-91 -4 -89 -4 -84 -18 7 -16 -73 -82 -99 -82 -15 0 -23 -10 -29 -38 -6 -24
-15 -37 -25 -37 -20 -1 -62 -63 -62 -91 0 -11 11 -31 25 -45 30 -30 30 -28 3
-54 -28 -25 -52 -26 -78 0 -11 11 -20 16 -20 10 0 -5 -4 -10 -10 -10 -15 0
-12 21 6 34 14 11 14 13 0 25 -11 9 -16 10 -16 2 0 -6 -4 -11 -10 -11 -5 0
-10 7 -10 15 0 9 -6 12 -15 8 -9 -3 -24 2 -35 12 -10 9 -29 15 -42 13 -19 -2
-22 -8 -20 -33 2 -16 7 -32 11 -35 4 -3 6 -23 5 -45 -5 -75 -13 -146 -19 -166
-4 -11 -1 -26 5 -34 6 -8 9 -18 6 -23 -3 -6 5 -13 19 -16 30 -8 33 -26 5 -26
-11 0 -20 -6 -20 -14 0 -8 -12 -16 -27 -18 -17 -2 -29 -10 -33 -23 -3 -11 -13
-32 -23 -47 -10 -15 -16 -31 -13 -36 3 -5 1 -23 -4 -41 -7 -26 -6 -31 8 -31
16 -1 16 -2 0 -14 -10 -7 -15 -16 -12 -19 4 -3 -1 -14 -11 -23 -18 -19 -17
-61 5 -144 11 -43 10 -46 -14 -65 -20 -16 -23 -24 -15 -32 16 -16 3 -43 -21
-43 -23 0 -27 -15 -7 -23 8 -3 22 -22 31 -42 17 -35 17 -37 -1 -50 -10 -8 -19
-10 -21 -6 -1 5 -14 6 -27 3 -26 -4 -39 -29 -30 -54 4 -9 -1 -22 -9 -31 -23
-23 -20 -30 12 -24 22 4 31 -1 49 -28 18 -28 19 -37 9 -51 -7 -9 -18 -14 -24
-10 -6 4 -25 0 -42 -9 -16 -8 -50 -16 -75 -17 -39 -2 -45 -5 -45 -24 0 -26 48
-49 82 -41 12 4 27 2 32 -2 11 -9 68 -21 98 -22 26 0 33 -19 8 -19 -16 0 -20
-4 -16 -16 4 -11 2 -15 -8 -11 -8 3 -16 2 -18 -4 -2 -5 -18 -11 -35 -13 -18
-3 -37 -7 -43 -11 -5 -3 -10 -1 -10 4 0 15 -20 14 -53 -1 -15 -7 -27 -20 -27
-29 0 -9 -10 -19 -22 -22 -17 -5 -19 -9 -9 -20 14 -18 5 -46 -25 -72 -13 -11
-39 -33 -58 -50 -18 -16 -32 -34 -29 -41 2 -6 -3 -14 -11 -17 -23 -9 -20 -44
4 -57 24 -13 41 -5 34 14 -7 18 9 28 30 20 20 -8 21 -24 2 -24 -11 0 -9 -7 7
-24 26 -30 38 -25 31 13 -5 23 -2 29 17 34 28 7 37 1 21 -15 -7 -7 -12 -29
-12 -50 0 -34 3 -38 26 -38 22 0 25 -2 14 -15 -9 -11 -16 -12 -25 -5 -9 8 -14
7 -17 -2 -4 -11 -8 -11 -20 0 -16 13 -48 7 -48 -10 0 -6 6 -8 14 -5 8 3 17 -1
20 -9 8 -22 8 -24 -8 -24 -8 0 -18 -14 -21 -32 -4 -18 -18 -54 -31 -80 -29
-57 -29 -55 -6 -61 11 -3 8 -5 -9 -6 -15 0 -38 -10 -52 -21 -14 -11 -30 -20
-35 -20 -20 0 -33 -30 -38 -84 -3 -39 -1 -56 8 -56 6 0 20 -8 31 -18 15 -12
21 -14 24 -4 5 14 33 16 33 2 0 -5 6 -10 13 -10 8 0 22 -9 32 -20 15 -17 16
-20 2 -25 -8 -4 -17 -14 -20 -24 -3 -11 -18 -21 -39 -25 -24 -4 -39 -14 -46
-31 -6 -14 -18 -25 -27 -25 -19 0 -19 -10 3 -36 19 -22 85 -39 79 -20 -6 17
75 39 85 23 4 -7 0 -16 -10 -21 -9 -5 -21 -15 -25 -23 -4 -7 -15 -13 -22 -13
-8 0 -15 -4 -15 -8 0 -5 -16 -15 -35 -22 -22 -9 -38 -23 -41 -36 -3 -13 -14
-30 -25 -40 -10 -9 -19 -27 -19 -39 0 -11 -5 -26 -12 -33 -9 -9 -9 -21 0 -50
7 -22 12 -51 12 -65 0 -14 6 -27 13 -30 8 -3 5 -12 -11 -30 -57 -61 -4 -93
131 -79 40 4 92 4 117 -1 25 -4 55 -7 68 -7 26 0 30 -28 4 -36 -9 -3 -25 -10
-34 -15 -10 -5 -35 -9 -56 -9 -21 0 -43 -5 -50 -12 -8 -8 -15 -8 -26 1 -8 7
-17 8 -19 4 -3 -5 -33 -8 -66 -7 -37 0 -61 -3 -61 -10 0 -6 -5 -5 -12 2 -19
19 -28 14 -28 -14 0 -15 -4 -23 -10 -19 -7 4 -9 -2 -4 -19 4 -16 1 -33 -7 -43
-11 -13 -11 -17 -1 -20 19 -7 14 -30 -8 -36 -14 -3 -20 -14 -20 -31 0 -33 6
-33 23 1 14 26 15 27 22 4 4 -14 12 -20 23 -17 9 3 35 8 57 11 22 4 51 10 65
15 14 5 43 11 65 13 22 3 48 8 58 12 13 5 16 3 11 -8 -3 -9 -12 -18 -20 -21
-8 -3 -14 -11 -14 -18 0 -7 -15 -19 -33 -27 -17 -7 -51 -22 -74 -32 -24 -10
-47 -19 -53 -19 -5 0 -10 -5 -10 -11 0 -5 -5 -7 -10 -4 -6 3 -13 -1 -16 -10
-4 -8 -11 -15 -18 -14 -24 3 -34 -2 -77 -41 -24 -22 -47 -40 -50 -40 -9 0 -28
-47 -22 -54 4 -3 14 -6 24 -6 9 0 19 -10 23 -22 4 -18 8 -20 18 -10 17 17 48
15 48 -3 0 -9 9 -15 24 -15 14 0 28 -5 32 -11 8 -14 163 -4 178 11 6 6 18 10
27 10 10 0 19 5 21 12 6 17 38 2 38 -17 0 -12 -6 -15 -23 -9 -12 3 -19 3 -15
-1 9 -9 -55 -65 -75 -65 -9 0 -19 -4 -22 -10 -3 -5 -26 -10 -51 -10 -24 0 -44
-4 -44 -10 0 -15 -17 -12 -36 7 -11 12 -38 19 -83 21 -36 3 -69 10 -73 16 -5
6 -8 2 -8 -11 0 -17 -4 -21 -17 -16 -11 4 -14 3 -9 -5 4 -7 2 -12 -4 -12 -6 0
-8 -5 -5 -11 4 -6 13 -8 21 -5 8 3 14 1 14 -4 0 -24 31 -37 73 -33 38 5 45 3
49 -15 4 -13 0 -23 -8 -26 -8 -3 -14 -12 -14 -21 0 -10 -9 -15 -26 -15 -19 0
-25 -4 -21 -15 7 -17 -12 -32 -22 -18 -12 18 -40 22 -52 6 -7 -8 -23 -19 -34
-23 -17 -7 -21 -15 -17 -39 2 -17 8 -31 13 -31 5 0 6 7 2 16 -5 14 -3 15 23 2
25 -11 55 -15 74 -8 26 8 70 6 70 -5 0 -9 22 -11 85 -7 l85 4 0 -28 c0 -26 -1
-26 -13 -9 -10 12 -16 14 -21 7 -4 -7 -4 -16 -1 -22 3 -5 -1 -10 -9 -10 -9 0
-16 -7 -16 -15 0 -8 -14 -17 -35 -21 -19 -3 -35 -12 -35 -19 0 -12 -61 -19
-148 -16 -26 1 -35 -4 -44 -24 -6 -14 -16 -24 -22 -22 -10 3 -67 245 -86 362
-14 93 -31 248 -40 378 -4 65 -11 121 -14 125 -4 3 -6 -636 -6 -1420 1 -1241
3 -1427 15 -1432 8 -3 15 -13 15 -22 0 -12 7 -15 25 -12 17 4 25 1 25 -9 0 -9
11 -29 25 -45 24 -29 25 -32 9 -49 -18 -20 -44 -25 -44 -9 0 6 -7 10 -15 10
-8 0 -15 7 -15 15 0 8 -9 19 -20 25 -19 10 -20 8 -20 -100 l0 -110 550 0 550
0 10 24 c9 25 59 66 80 66 15 0 5 -60 -11 -71 -7 -4 -4 -9 6 -13 26 -10 685
-7 685 3 0 5 -13 21 -30 34 -35 30 -38 43 -11 52 23 7 109 159 117 207 4 21
10 38 15 38 5 0 9 8 9 18 -1 15 -2 15 -13 1 -18 -23 -47 -31 -47 -14 0 8 5 15
10 15 6 0 10 10 10 21 0 18 -2 19 -15 9 -13 -11 -15 -8 -17 16 -3 52 2 88 15
96 8 5 7 8 -5 8 -11 0 -15 5 -12 15 4 8 15 15 25 15 11 0 28 14 39 32 35 59
62 88 81 88 23 0 26 -45 5 -76 -10 -13 -11 -25 -5 -35 7 -11 9 -9 9 9 0 12 5
22 10 22 6 0 10 6 10 14 0 7 9 34 20 60 12 25 22 59 23 76 1 16 6 30 11 30 6
0 2 6 -7 12 -14 11 -15 20 -6 61 7 29 18 51 27 55 10 3 22 12 28 21 7 9 17 12
30 6 33 -14 47 -14 58 0 7 9 21 12 39 8 21 -4 25 -8 15 -15 -8 -5 -4 -6 13 -3
26 6 27 5 34 -52 4 -32 10 -51 13 -43 3 8 11 20 19 25 7 6 14 22 15 36 2 22 6
26 22 19 25 -9 33 -30 12 -30 -22 0 -20 -23 2 -43 27 -25 45 -22 30 3 -17 28
8 45 36 26 33 -22 29 -33 -19 -47 -45 -13 -56 -23 -32 -32 6 -3 -8 -2 -33 1
-25 3 -46 9 -48 13 -2 4 -10 5 -18 2 -8 -3 -21 0 -29 7 -8 6 -22 10 -32 7 -14
-4 -13 -5 5 -6 12 0 22 -5 22 -9 0 -5 -38 -8 -85 -7 -66 1 -85 -2 -90 -13 -9
-23 14 -32 78 -32 60 0 127 -21 127 -40 0 -23 94 -100 122 -100 7 0 30 -9 50
-19 19 -11 38 -17 42 -14 3 3 13 0 22 -7 12 -11 17 -11 23 -1 9 15 59 10 70
-7 9 -15 91 -26 91 -12 0 5 7 10 15 10 8 0 15 5 15 10 0 6 7 10 15 10 8 0 15
-5 15 -10 0 -11 176 -13 194 -3 9 6 75 13 114 13 12 0 22 5 22 10 0 6 8 10 18
11 9 1 -3 5 -27 10 -26 5 -51 5 -62 -1 -12 -7 -20 -7 -24 0 -3 5 1 10 9 10 9
0 16 7 16 15 0 8 9 15 21 15 11 0 17 -4 14 -10 -4 -6 6 -10 24 -10 16 0 33 5
36 10 3 6 29 10 56 10 29 0 48 -4 44 -10 -3 -5 -13 -7 -23 -4 -14 5 -14 3 2
-10 22 -17 28 -18 66 -6 24 8 24 8 3 9 -13 1 -23 6 -23 11 0 6 14 9 30 8 18
-1 29 -7 26 -14 -4 -11 13 -7 189 36 28 6 73 21 100 32 28 11 55 21 60 22 13
4 33 10 75 25 19 7 86 16 148 20 123 9 171 27 269 101 47 35 118 118 109 127
-8 9 -46 -8 -41 -18 4 -5 -1 -9 -9 -9 -9 0 -16 -4 -16 -10 0 -5 -12 -10 -26
-10 -14 0 -23 -4 -19 -10 3 -6 -6 -15 -21 -20 -15 -6 -33 -18 -40 -28 -7 -9
-16 -14 -20 -10 -4 4 -13 3 -20 -3 -8 -7 -14 -7 -19 1 -3 5 -3 10 0 10 3 0 -1
10 -9 22 -16 22 -22 48 -9 34 7 -7 43 79 43 103 0 8 -7 22 -16 32 -14 15 -14
20 -3 31 27 25 68 48 89 48 27 0 84 56 85 83 0 15 7 23 23 25 24 4 31 37 10
46 -9 3 -8 9 6 20 10 8 15 20 11 25 -3 6 1 14 9 17 13 5 13 8 1 20 -16 16 -68
18 -96 4 -11 -6 -25 -8 -31 -4 -21 13 -333 3 -372 -12 -9 -3 -16 -10 -16 -15
0 -5 -9 -9 -19 -9 -11 0 -23 -4 -26 -10 -3 -5 -47 -10 -97 -10 -79 0 -96 -3
-142 -28 -28 -15 -52 -30 -54 -34 -2 -5 -28 -8 -58 -8 -30 0 -67 -6 -82 -14
-15 -7 -43 -16 -63 -20 -21 -4 -52 -14 -70 -23 -19 -10 -50 -15 -78 -13 -25 1
-59 3 -76 4 -20 1 -31 7 -33 19 -3 15 -10 17 -30 12 -15 -3 -37 -9 -48 -11
-18 -5 -21 -2 -17 18 3 15 -2 30 -13 39 -9 8 -18 12 -18 10 -3 -13 -76 23 -81
40 -4 10 -11 19 -16 19 -5 0 -9 9 -9 20 0 11 -8 24 -17 27 -10 4 -21 10 -24
15 -11 17 -114 78 -131 78 -11 0 -18 7 -18 20 0 11 -4 21 -10 21 -20 3 -25 5
-47 19 -13 8 -23 22 -23 32 0 9 -5 18 -10 20 -6 2 -12 13 -13 26 -1 21 -27 33
-27 12 0 -5 5 -10 10 -10 6 0 10 -4 10 -10 0 -19 -37 -10 -58 15 -12 14 -22
29 -22 34 0 4 -10 6 -23 4 -13 -3 -31 4 -44 16 -29 27 -36 26 -27 -1 6 -20 5
-21 -10 -9 -9 7 -16 22 -16 32 0 12 -7 19 -20 19 -15 0 -20 7 -20 25 0 13 -7
28 -15 33 -9 4 -17 22 -19 38 -2 16 -9 29 -15 29 -7 0 -18 8 -25 18 -7 9 -21
17 -30 17 -9 0 -16 7 -16 15 0 8 -9 15 -20 15 -11 0 -20 7 -20 15 0 8 5 15 10
15 6 0 10 8 10 18 1 16 2 15 15 -2 8 -10 12 -23 9 -27 -2 -4 6 -13 18 -20 12
-7 29 -18 37 -26 7 -8 19 -12 25 -10 14 5 39 -20 27 -27 -4 -3 -6 -17 -3 -31
2 -14 7 -23 10 -21 3 3 11 -2 18 -12 7 -9 16 -14 20 -9 4 4 -1 13 -11 21 -17
12 -18 17 -6 39 l13 25 29 -29 c16 -16 34 -29 40 -29 9 0 9 -4 0 -14 -8 -10
-9 -16 -1 -21 5 -3 10 -1 10 4 0 6 7 11 15 11 12 0 14 -4 5 -20 -8 -16 -6 -21
12 -31 16 -9 23 -9 26 0 2 6 8 11 14 11 5 0 6 -9 3 -21 -6 -19 -4 -21 14 -16
16 4 21 1 21 -13 0 -13 11 -20 38 -24 20 -4 56 -20 79 -37 23 -16 46 -29 51
-29 5 0 27 -12 48 -26 21 -15 51 -27 67 -28 15 -1 32 -8 37 -16 5 -9 35 -16
79 -21 42 -3 78 -12 89 -22 13 -12 27 -14 60 -8 23 5 42 6 42 3 0 -3 9 3 20
13 16 14 23 16 32 7 9 -9 8 -12 -5 -12 -10 0 -17 -8 -17 -20 0 -24 22 -26 40
-5 14 17 50 20 50 5 0 -5 7 -10 15 -10 30 0 14 -20 -17 -21 l-33 -2 30 -4 c16
-3 33 -10 37 -16 6 -9 8 -9 8 1 0 6 10 12 21 12 18 0 19 3 10 14 -13 15 -10
16 107 19 20 0 32 6 32 15 0 10 8 12 33 7 17 -4 38 -12 45 -18 7 -5 46 -11 86
-11 46 -1 79 -6 90 -15 13 -11 20 -11 28 -3 14 14 53 16 76 3 10 -5 36 -4 65
4 26 6 47 8 47 3 0 -4 16 -8 36 -8 20 0 33 4 29 10 -4 6 10 8 37 5 24 -3 90
-5 146 -5 78 0 107 4 119 15 8 8 26 15 41 15 46 0 172 43 177 61 3 10 17 20
30 23 18 5 25 13 25 30 0 14 3 31 6 39 8 23 -50 75 -81 72 -20 -3 -28 2 -35
20 -7 18 -15 23 -40 21 -17 -1 -33 1 -36 5 -2 4 -26 12 -54 19 -27 7 -50 16
-50 20 0 4 -13 13 -30 20 -19 8 -33 23 -40 46 -7 19 -20 39 -31 44 -10 6 -19
19 -19 30 0 10 -3 26 -6 35 -5 13 -9 14 -15 4 -6 -10 -10 -9 -15 5 -4 11 -2
22 7 27 12 8 11 11 -4 20 -11 7 -16 17 -12 29 3 10 1 21 -5 25 -6 3 -8 10 -5
15 3 5 1 11 -5 15 -5 3 -10 17 -10 30 0 13 -5 27 -11 31 -6 4 -8 20 -5 39 4
21 2 36 -5 40 -8 6 -8 9 1 15 17 10 2 58 -21 65 -18 6 -18 7 -1 24 34 36 118
37 107 1 -7 -23 14 -70 32 -70 7 0 13 9 13 19 0 15 6 19 27 16 14 -1 32 -11
40 -21 7 -9 14 -16 15 -13 2 2 20 23 41 45 32 34 37 46 31 68 -4 18 -11 25
-20 22 -8 -3 -14 1 -14 9 0 8 8 15 18 15 14 0 14 2 3 9 -8 5 -11 16 -8 24 11
28 -7 27 -19 -1 -10 -25 -17 -29 -50 -27 -32 1 -38 5 -36 19 2 10 -2 32 -9 48
-10 25 -14 27 -21 14 -5 -9 -16 -16 -23 -16 -17 0 -20 16 -5 25 6 3 10 17 10
31 0 14 -4 23 -9 19 -6 -3 -19 5 -30 17 -12 12 -21 16 -21 10 0 -7 -5 -12 -11
-12 -6 0 -9 6 -6 14 3 8 -1 13 -11 12 -11 -1 -17 6 -16 21 0 12 -4 21 -10 20
-12 -2 -18 24 -8 39 4 6 17 14 30 18 19 7 22 4 22 -23 0 -35 16 -50 25 -22 5
16 25 28 57 35 20 4 18 18 -4 39 -13 12 -22 29 -20 37 3 12 2 12 -8 4 -9 -9
-9 -17 0 -34 10 -18 9 -21 -2 -18 -14 5 -23 51 -14 74 4 12 10 12 26 4 16 -9
20 -8 20 5 0 8 -6 15 -14 15 -8 0 -17 13 -21 30 -4 16 -12 30 -19 30 -7 0 -13
13 -13 30 0 22 5 30 19 30 22 0 24 25 3 34 -8 3 -15 12 -15 20 0 9 -7 12 -20
9 -25 -7 -26 12 -2 26 16 10 16 10 0 11 -21 0 -13 30 8 30 8 0 14 5 14 10 0 6
-9 10 -21 10 -11 0 -17 5 -14 10 3 6 -1 13 -9 16 -9 3 -13 10 -10 15 3 5 1 9
-4 9 -13 0 -9 44 5 52 6 5 8 18 5 30 -6 23 -6 23 -13 -2 -6 -21 -7 -18 -8 15
0 22 3 36 7 30 9 -13 49 -11 85 4 15 6 31 10 35 8 4 -1 8 3 9 8 1 6 -7 9 -17
7 -11 -2 -20 2 -20 7 0 6 -6 11 -12 11 -7 0 -22 8 -33 16 -20 16 -20 16 3 9
14 -4 22 -2 22 5 0 7 -9 14 -19 17 -12 3 -21 15 -23 32 -2 16 -8 25 -17 23
-11 -2 -13 7 -8 45 4 34 3 42 -4 28 -7 -16 -9 -14 -6 12 3 25 -1 34 -15 39
-10 3 -18 11 -18 19 0 8 -7 11 -20 8 -16 -4 -20 0 -20 20 0 16 6 27 17 29 13
2 11 7 -10 28 -20 19 -27 35 -27 65 0 22 -7 49 -15 59 -13 17 -18 18 -40 8
-34 -16 -39 -15 -22 2 17 18 21 94 5 114 -7 7 -13 21 -15 31 -1 9 -14 26 -28
39 -19 16 -28 36 -32 65 -2 23 -1 37 4 31 6 -9 11 -8 21 2 7 8 10 14 6 14 -3
0 1 11 10 25 20 30 20 35 1 35 -8 0 -15 -8 -16 -17 0 -11 -3 -13 -6 -5 -2 6
-11 12 -20 12 -12 0 -13 8 -8 39 5 32 3 41 -12 50 -10 6 -13 11 -7 11 8 0 10
16 6 47 -4 40 -3 45 11 40 9 -3 19 -2 22 3 4 6 21 10 39 10 36 0 34 -9 24 120
-3 36 -18 60 -38 60 -15 0 -3 72 13 82 9 6 8 10 -2 17 -8 5 -15 31 -18 62 -4
66 -10 82 -23 74 -8 -5 -16 47 -11 78 0 4 -6 7 -14 7 -18 0 -19 11 -2 29 10
11 10 14 0 18 -7 3 -13 13 -13 24 0 10 -4 19 -10 19 -28 0 -242 -69 -256 -83
-4 -4 1 -7 12 -8 15 -1 13 -3 -6 -9 -25 -8 -25 -8 -2 -9 13 -1 20 -5 17 -11
-3 -5 -8 -35 -10 -65 -3 -43 -1 -57 11 -62 14 -5 14 -25 -2 -101 -3 -17 1 -25
20 -31 26 -10 40 -63 22 -81 -7 -7 -4 -15 11 -25 14 -10 19 -22 16 -35 -3 -13
0 -20 8 -21 8 0 3 -5 -10 -10 -19 -8 -22 -14 -16 -37 3 -15 7 -46 7 -69 0 -24
4 -43 9 -43 5 0 9 -9 9 -20 0 -11 -4 -20 -10 -20 -5 0 -10 -4 -10 -10 0 -5 11
-10 25 -10 20 0 24 -4 21 -22 -2 -15 -11 -24 -25 -26 -13 -2 -20 1 -19 9 2 6
-3 14 -9 16 -8 3 -13 -3 -13 -14 0 -11 -4 -23 -9 -28 -5 -6 -6 -26 -2 -45 5
-26 9 -31 14 -17 3 9 11 17 17 17 16 0 12 -28 -6 -38 -8 -5 -17 -20 -18 -35
-2 -15 -9 -33 -16 -42 -14 -17 -5 -85 11 -85 6 0 7 -5 4 -11 -4 -6 2 -13 12
-15 22 -6 45 -72 42 -119 -3 -36 9 -75 22 -75 5 0 9 -9 9 -20 0 -12 7 -20 16
-20 10 0 14 -6 11 -15 -4 -8 -2 -17 2 -20 5 -2 12 -22 16 -42 4 -21 12 -41 18
-45 11 -7 13 -15 15 -117 2 -46 4 -52 20 -47 16 6 16 5 0 -8 -10 -7 -18 -18
-18 -25 0 -11 17 -9 72 5 10 3 26 0 38 -6 17 -9 22 -7 29 12 8 21 10 21 16 5
5 -12 0 -26 -15 -42 -18 -19 -29 -22 -56 -18 -26 4 -34 2 -34 -9 0 -9 7 -21
15 -28 11 -9 13 -16 5 -24 -14 -14 -12 -26 5 -26 8 0 15 5 15 11 0 18 17 0 39
-41 16 -32 18 -40 6 -40 -7 0 -17 5 -20 10 -3 6 -15 10 -26 10 -10 0 -19 5
-19 10 0 6 -5 10 -11 10 -8 0 -8 -4 -2 -12 14 -19 10 -42 -8 -46 -11 -2 -18 6
-21 25 -3 15 -9 37 -13 47 -6 13 -5 17 3 12 6 -3 14 -1 18 5 9 15 -37 50 -51
40 -14 -12 -58 -7 -63 7 -2 7 -9 12 -16 12 -9 0 -12 9 -8 25 2 14 -1 32 -8 40
-10 12 -10 18 0 30 10 13 9 15 -9 15 -22 0 -30 20 -8 20 6 0 4 5 -5 11 -10 5
-18 17 -18 25 0 8 -6 17 -14 20 -8 3 -12 12 -10 19 3 7 -3 16 -15 20 -12 3
-22 19 -27 38 -3 17 -10 38 -15 47 -7 13 -20 63 -21 80 0 3 -9 17 -20 32 -10
16 -17 32 -14 37 8 13 -4 42 -15 35 -12 -7 -11 33 1 57 9 16 7 19 -10 19 -15
0 -20 7 -21 28 -2 56 -8 84 -20 99 -14 16 -29 173 -17 173 5 0 8 -7 8 -15 0
-8 5 -15 10 -15 12 0 3 94 -12 123 -5 10 -6 31 -3 48 4 19 2 34 -8 44 -11 11
-14 35 -12 97 1 46 6 91 10 101 4 10 3 17 -5 17 -6 0 -8 -4 -5 -10 3 -5 2 -10
-4 -10 -6 0 -8 18 -4 46 4 37 1 52 -17 76 -20 28 -21 31 -5 48 10 11 14 24 9
31 -4 8 -3 10 4 5 7 -4 12 -3 12 2 0 5 -10 12 -22 16 -26 6 -78 -38 -55 -47 7
-3 2 -6 -10 -6 -13 -1 -32 -14 -45 -31 -12 -16 -27 -30 -34 -30 -7 0 -46 25
-86 55 -124 92 -308 150 -452 140 -77 -5 -96 0 -96 29 0 33 105 133 263 250
21 15 37 29 35 31 -7 6 -190 -31 -196 -40 -13 -19 -96 -81 -125 -93 -44 -19
-120 -15 -143 7 -43 42 -54 62 -54 104 0 62 2 77 12 77 4 0 8 6 8 13 0 16 66
80 99 97 25 13 25 13 -20 34 -61 28 -130 100 -165 171 -27 56 -29 68 -29 175
1 97 4 122 23 160 28 57 40 77 74 115 16 16 28 35 28 40 0 6 20 23 45 38 25
16 45 33 45 39 0 5 4 7 9 4 5 -3 14 1 21 8 6 8 26 18 43 22 18 3 41 11 52 17
11 6 24 11 28 12 5 0 15 9 23 20 20 26 77 25 106 -2 13 -12 46 -27 73 -33 28
-6 58 -16 67 -21 10 -5 24 -9 32 -9 14 0 73 -47 130 -105 l30 -30 -18 28 c-15
25 -16 30 -3 40 8 7 20 35 27 64 6 28 18 54 26 57 12 4 12 10 4 26 -9 16 -8
20 5 20 9 0 15 9 16 23 0 12 3 16 6 10 7 -20 23 -15 23 6 0 20 25 51 41 51 5
0 9 -9 9 -19 0 -11 5 -23 10 -26 6 -3 10 -16 10 -28 0 -15 3 -18 8 -10 14 22
64 -7 59 -34 -3 -17 3 -24 24 -32 19 -6 29 -17 29 -30 0 -11 5 -23 10 -26 16
-10 12 -25 -7 -25 -15 0 -15 -1 -1 -12 9 -7 19 -24 23 -38 5 -21 4 -23 -7 -9
-17 21 -62 11 -48 -11 7 -11 10 -11 10 -2 0 7 5 10 10 7 6 -4 8 -16 5 -26 -4
-11 -1 -26 5 -34 9 -11 10 -18 1 -29 -15 -18 -3 -49 16 -42 8 3 17 6 19 6 2 0
4 7 4 15 0 18 16 20 23 3 3 -9 10 -7 21 7 13 16 15 17 10 3 -5 -14 -1 -18 20
-18 14 0 29 0 34 -1 4 0 10 -10 15 -21 14 -39 23 -12 34 105 3 31 9 57 14 57
4 0 9 21 11 48 3 46 4 47 49 62 l47 16 -34 10 c-30 10 -33 9 -21 -4 10 -13 9
-14 -1 -8 -8 5 -23 -2 -39 -18 -29 -29 -43 -26 -43 9 0 17 5 22 18 19 11 -3
23 5 34 26 l17 31 -27 -3 c-23 -3 -27 1 -30 25 -2 15 -7 27 -12 27 -4 0 -6 9
-3 19 3 12 11 17 19 14 19 -7 18 6 -5 43 -10 17 -28 34 -40 37 -18 4 -21 1
-21 -24 0 -21 -4 -27 -15 -23 -14 6 -20 -10 -16 -42 1 -7 -8 -14 -20 -17 -11
-3 -18 -10 -15 -15 8 -13 -20 -35 -34 -27 -8 5 -4 12 9 22 28 19 26 41 -7 93
-2 2 -7 -2 -12 -10 -6 -10 -10 -3 -15 24 -6 27 -15 41 -39 54 -29 15 -30 17
-8 20 22 3 30 18 12 24 -12 4 7 78 20 78 6 0 10 9 10 20 0 10 6 23 13 27 16
10 37 58 37 83 0 11 5 20 11 20 6 0 8 8 4 19 -10 32 24 131 48 140 14 5 17 10
9 15 -24 14 -13 58 23 93 19 19 35 39 35 45 0 5 7 8 15 5 24 -10 28 13 6 34
-22 21 -21 29 9 64 35 40 111 201 130 273 13 52 31 61 62 32 46 -43 79 -52
173 -51 96 1 125 -8 220 -71 23 -15 67 -30 102 -36 35 -6 97 -27 139 -47 42
-20 86 -40 98 -45 12 -4 42 -24 67 -43 26 -19 62 -38 80 -42 74 -16 120 -60
171 -160 11 -22 75 -96 142 -165 66 -69 139 -147 161 -174 37 -44 165 -241
165 -252 0 -3 18 -31 40 -62 23 -32 47 -82 55 -115 14 -54 23 -66 133 -175 65
-64 133 -138 150 -164 46 -67 82 -148 82 -185 0 -36 14 -47 71 -57 20 -3 61
-25 91 -49 31 -23 81 -60 112 -82 47 -33 63 -52 92 -112 28 -57 41 -74 62 -79
49 -12 101 -43 126 -77 14 -19 26 -38 26 -43 0 -5 23 -27 52 -49 28 -22 68
-58 89 -80 81 -84 159 -175 159 -185 0 -5 20 -19 45 -31 25 -12 45 -24 45 -28
0 -4 19 -30 43 -58 24 -28 49 -66 57 -84 13 -36 125 -149 147 -149 20 0 142
-109 160 -143 20 -39 192 -217 210 -217 7 0 44 -30 83 -67 l71 -67 35 13 c44
16 103 7 146 -22 31 -21 69 -93 82 -157 5 -25 31 -47 216 -181 83 -60 100 -70
180 -98 30 -10 73 -26 95 -34 22 -8 61 -18 88 -22 l47 -7 0 3401 0 3401 -1520
0 -1520 -1 0 -20 c0 -11 -4 -18 -10 -14 -5 3 -7 12 -3 20 4 13 -314 15 -2606
15 l-2611 0 0 -1380z m4654 1344 c11 -27 7 -37 -9 -24 -16 14 -20 40 -6 40 5
0 12 -7 15 -16z m663 -21 c-3 -10 -5 -4 -5 12 0 17 2 24 5 18 2 -7 2 -21 0
-30z m-39 6 c-2 -6 -8 -10 -13 -10 -5 0 -11 4 -13 10 -2 6 4 11 13 11 9 0 15
-5 13 -11z m-44 -25 c9 -3 16 -13 16 -21 0 -20 -33 -12 -36 10 -3 19 -2 19 20
11z m34 -71 c2 -8 -6 -13 -22 -13 -17 0 -26 5 -26 16 0 19 41 16 48 -3z m33
-123 c2 -36 1 -70 -3 -75 -4 -6 2 -22 13 -35 15 -20 19 -22 19 -7 0 9 -4 17
-10 17 -5 0 -10 7 -10 15 0 25 17 17 24 -11 8 -32 0 -60 -20 -68 -10 -4 -13
-13 -8 -31 4 -15 2 -25 -5 -25 -6 0 -12 8 -13 18 -2 32 -4 37 -12 51 -5 7 -10
37 -11 65 -1 28 -5 65 -9 81 -17 70 -17 75 -2 69 8 -3 17 0 21 6 13 22 23 -5
26 -70z m-1586 -80 c16 -6 17 -9 5 -13 -28 -10 -79 -13 -74 -5 3 4 0 8 -5 8
-6 0 -11 -6 -11 -14 0 -7 -7 -19 -15 -26 -8 -6 -13 -17 -12 -23 1 -7 -15 -12
-40 -13 -40 -2 -48 3 -44 29 0 4 -3 7 -9 7 -5 0 -10 9 -10 20 0 17 7 20 48 21
26 0 56 4 67 9 25 11 74 11 100 0z m-281 -41 c-10 -11 -14 -20 -9 -19 22 5 35
-1 35 -15 0 -18 -14 -19 -63 -1 l-39 13 29 21 c15 12 37 22 47 22 19 0 19 0 0
-21z m-119 -12 c-7 -10 -34 -29 -58 -42 l-46 -23 2 32 c4 46 11 53 65 52 46
-1 49 -2 37 -19z m522 15 c26 -16 -6 -31 -85 -39 -65 -7 -82 -6 -82 4 0 7 12
15 28 19 15 3 41 10 57 14 40 11 67 11 82 2z m1520 -54 c-3 -8 -6 -5 -6 6 -1
11 2 17 5 13 3 -3 4 -12 1 -19z m-1420 1 c8 -8 25 -8 62 0 84 18 94 3 53 -76
-18 -35 -52 -45 -52 -15 0 13 -2 14 -9 3 -7 -10 -21 -12 -55 -7 -25 4 -48 11
-51 17 -4 5 -16 9 -29 9 -30 0 -33 5 -28 39 4 26 9 30 41 34 20 2 41 4 47 5 5
1 15 -3 21 -9z m1403 -19 c0 -11 -4 -20 -10 -20 -5 0 -10 9 -10 20 0 11 5 20
10 20 6 0 10 -9 10 -20z m-2310 -71 c0 -6 7 -9 15 -5 8 3 15 1 15 -4 0 -6 -3
-10 -8 -10 -4 0 -27 -18 -52 -41 -26 -24 -57 -42 -74 -44 -17 -2 -36 -12 -43
-21 -7 -10 -16 -15 -19 -11 -4 4 6 19 21 34 18 19 29 24 32 16 3 -7 9 -13 15
-13 6 0 8 7 4 15 -3 8 -2 15 3 15 12 0 51 36 51 47 0 11 21 33 32 33 4 0 8 -5
8 -11z m1088 -29 c7 0 12 -7 12 -16 0 -10 -7 -14 -17 -12 -10 2 -17 10 -15 16
1 7 -5 12 -13 12 -8 0 -15 7 -15 17 0 15 1 15 18 0 10 -10 24 -17 30 -17z
m144 -17 c64 -2 91 -14 71 -34 -8 -8 -24 -8 -60 1 -26 6 -58 12 -70 12 -15 0
-23 6 -23 17 0 22 14 37 18 19 2 -9 22 -14 64 -15z m146 -30 c-5 -26 -38 -29
-38 -4 0 15 6 21 21 21 14 0 19 -5 17 -17z m32 -43 c0 -5 -7 -10 -16 -10 -8 0
-12 5 -9 10 3 6 10 10 16 10 5 0 9 -4 9 -10z m-1606 -128 c-14 -29 -30 -52
-35 -52 -5 0 -21 -19 -36 -42 -15 -25 -28 -37 -31 -30 -2 8 5 23 15 35 11 12
39 50 63 85 24 34 45 61 46 59 2 -2 -8 -27 -22 -55z m1639 48 c8 0 7 -4 -1
-12 -9 -9 -16 -8 -30 6 -16 18 -16 19 1 12 10 -3 24 -6 30 -6z m237 -115 c0
-8 -4 -15 -9 -15 -5 0 -14 7 -21 15 -10 13 -9 15 9 15 12 0 21 -6 21 -15z
m-192 -53 c3 -9 -2 -13 -14 -10 -9 1 -19 9 -22 16 -3 9 2 13 14 10 9 -1 19 -9
22 -16z m-1801 -34 c-3 -8 -6 -5 -6 6 -1 11 2 17 5 13 3 -3 4 -12 1 -19z
m1821 -39 c4 -40 -12 -30 -22 14 -5 21 -3 28 6 25 7 -3 14 -20 16 -39z m235
-33 c4 -10 1 -13 -9 -9 -7 3 -14 9 -14 14 0 14 17 10 23 -5z m121 -98 c9 -36
7 -78 -4 -78 -5 0 -10 8 -10 19 0 10 -3 33 -6 50 -7 36 10 43 20 9z m-369
-180 c2 -13 7 -77 9 -143 3 -66 8 -139 11 -162 4 -25 2 -57 -5 -79 l-13 -37
-28 34 c-16 19 -29 39 -29 45 0 7 -7 14 -15 18 -8 3 -15 11 -16 18 0 7 -19 27
-42 44 -40 29 -42 33 -39 74 3 46 25 82 45 74 7 -2 17 7 24 21 6 14 7 25 2 25
-5 0 -9 5 -9 10 0 6 7 10 15 10 8 0 15 4 15 9 0 14 44 61 57 61 7 0 15 -10 18
-22z m-592 -227 c6 -24 -8 -50 -16 -30 -3 8 -6 1 -7 -16 0 -16 -8 -39 -18 -50
-20 -25 -169 -92 -179 -81 -4 4 1 24 12 44 14 26 29 39 50 43 47 9 75 21 75
30 0 5 11 7 25 3 22 -5 25 -3 25 19 0 50 23 77 33 38z m-43 -26 c0 -8 -4 -15
-10 -15 -5 0 -10 7 -10 15 0 8 5 15 10 15 6 0 10 -7 10 -15z m-515 -156 c4 -6
5 -13 2 -16 -8 -7 -47 7 -47 18 0 13 37 11 45 -2z m959 -15 c9 -3 16 -10 16
-14 0 -10 -38 -1 -46 11 -6 10 7 12 30 3z m3656 -854 c0 -5 -7 -10 -15 -10 -8
0 -15 5 -15 10 0 6 7 10 15 10 8 0 15 -4 15 -10z m-5782 -61 c-2 -6 -8 -10
-13 -10 -5 0 -11 4 -13 10 -2 6 4 11 13 11 9 0 15 -5 13 -11z m-223 -8 c7 -12
-12 -24 -25 -16 -11 7 -4 25 10 25 5 0 11 -4 15 -9z m-235 -32 c0 -5 -7 -9
-15 -9 -15 0 -20 12 -9 23 8 8 24 -1 24 -14z m-260 -9 c0 -5 -5 -10 -11 -10
-5 0 -7 5 -4 10 3 6 8 10 11 10 2 0 4 -4 4 -10z m-258 -35 c0 -5 -5 -11 -11
-13 -6 -2 -11 4 -11 13 0 9 5 15 11 13 6 -2 11 -8 11 -13z m-277 -5 c-3 -5
-10 -10 -16 -10 -5 0 -9 5 -9 10 0 6 7 10 16 10 8 0 12 -4 9 -10z m-287 -18
c2 -7 -6 -12 -17 -12 -21 0 -27 11 -14 24 9 9 26 2 31 -12z m502 -48 c0 -15
-6 -24 -15 -24 -15 0 -21 40 -9 53 12 11 24 -3 24 -29z m630 26 c0 -5 -7 -10
-15 -10 -8 0 -15 5 -15 10 0 6 7 10 15 10 8 0 15 -4 15 -10z m-950 -70 c0 -5
-4 -10 -10 -10 -5 0 -10 5 -10 10 0 6 5 10 10 10 6 0 10 -4 10 -10z m-158 -26
c-24 -17 -39 -14 -27 5 3 6 16 11 28 11 l21 0 -22 -16z m-608 -45 c-7 -12 -51
-11 -59 1 -9 15 37 30 52 18 7 -6 10 -14 7 -19z m796 10 c0 -16 -31 -22 -43
-10 -9 9 -9 14 2 20 16 10 41 4 41 -10z m720 -5 c0 -10 -14 -14 -45 -15 -25
-1 -60 -2 -77 -3 -18 -1 -41 3 -50 8 -11 7 -21 6 -32 -3 -18 -15 -42 -5 -27
12 15 18 231 19 231 1z m60 7 c0 -14 -18 -23 -30 -16 -6 4 -8 11 -5 16 8 12
35 12 35 0z m-396 -16 c4 -11 -1 -15 -19 -15 -25 0 -39 12 -28 24 12 11 41 6
47 -9z m-710 -31 c29 -11 18 -44 -19 -60 -56 -23 -73 0 -33 43 23 25 28 26 52
17z m121 -74 c0 -9 -12 -16 -30 -18 -16 -2 -36 -9 -43 -14 -9 -8 -16 -8 -24 0
-9 9 -7 17 7 32 23 25 90 25 90 0z m1655 -30 c0 -5 -4 -10 -10 -10 -5 0 -10 5
-10 10 0 6 5 10 10 10 6 0 10 -4 10 -10z m-1660 -34 c0 -8 -4 -17 -8 -20 -13
-8 -35 11 -28 23 10 16 36 14 36 -3z m-136 -47 c-7 -13 -31 -11 -40 2 -9 16
18 30 33 17 7 -6 10 -14 7 -19z m266 15 c0 -9 -7 -14 -17 -12 -25 5 -28 28 -4
28 12 0 21 -6 21 -16z m68 -12 c2 -7 -6 -12 -17 -12 -21 0 -27 11 -14 24 9 9
26 2 31 -12z m-303 -72 c7 -11 -39 -25 -55 -15 -5 3 -8 11 -5 16 8 12 52 12
60 -1z m2735 -15 c0 -17 -31 -28 -44 -15 -7 7 -6 10 2 10 7 0 12 7 12 15 0 9
6 12 15 9 8 -4 15 -12 15 -19z m-1265 -5 c-3 -5 -12 -10 -18 -10 -7 0 -6 4 3
10 19 12 23 12 15 0z m-155 -120 c0 -5 -7 -10 -15 -10 -8 0 -15 5 -15 10 0 6
7 10 15 10 8 0 15 -4 15 -10z m380 -104 c0 -3 -4 -8 -10 -11 -5 -3 -10 -1 -10
4 0 6 5 11 10 11 6 0 10 -2 10 -4z m-92 -84 c2 -7 -6 -12 -17 -12 -21 0 -27
11 -14 24 9 9 26 2 31 -12z m22 -42 c0 -5 -7 -10 -15 -10 -8 0 -15 5 -15 10 0
6 7 10 15 10 8 0 15 -4 15 -10z m84 -11 c-3 -5 -10 -7 -15 -3 -5 3 -7 10 -3
15 3 5 10 7 15 3 5 -3 7 -10 3 -15z m-656 -20 c-3 -8 -7 -3 -11 10 -4 17 -3
21 5 13 5 -5 8 -16 6 -23z m1603 -352 c-13 -13 -26 -3 -16 12 3 6 11 8 17 5 6
-4 6 -10 -1 -17z m69 -39 c0 -10 -41 -31 -48 -24 -3 3 0 6 6 6 17 0 15 30 -3
36 -8 4 -12 10 -9 15 5 9 53 -20 54 -33z m-2043 -24 c-3 -3 -12 -4 -19 -1 -8
3 -5 6 6 6 11 1 17 -2 13 -5z m1423 -54 c0 -5 -2 -10 -4 -10 -3 0 -8 5 -11 10
-3 6 -1 10 4 10 6 0 11 -4 11 -10z m668 -2 c-6 -18 -28 -21 -28 -4 0 9 7 16
16 16 9 0 14 -5 12 -12z m-2048 -8 c0 -5 -2 -10 -4 -10 -3 0 -8 5 -11 10 -3 6
-1 10 4 10 6 0 11 -4 11 -10z m60 1 c0 -6 -4 -13 -10 -16 -5 -3 -10 1 -10 9 0
9 5 16 10 16 6 0 10 -4 10 -9z m600 -27 c0 -8 -5 -12 -10 -9 -6 4 -8 11 -5 16
9 14 15 11 15 -7z m885 -44 c3 -6 -1 -7 -9 -4 -18 7 -21 14 -7 14 6 0 13 -4
16 -10z m65 -40 c0 -5 -5 -10 -11 -10 -5 0 -7 5 -4 10 3 6 8 10 11 10 2 0 4
-4 4 -10z m570 -31 c0 -4 -7 -6 -15 -3 -8 4 -15 10 -15 15 0 4 7 6 15 3 8 -4
15 -10 15 -15z m-530 -11 c0 -6 -6 -5 -15 2 -8 7 -15 14 -15 16 0 2 7 1 15 -2
8 -4 15 -11 15 -16z m-670 -18 c0 -5 -5 -10 -11 -10 -5 0 -7 5 -4 10 3 6 8 10
11 10 2 0 4 -4 4 -10z m-7 -29 c-4 -3 -10 -9 -13 -12 -3 -4 -10 -1 -17 6 -9
10 -6 13 13 13 14 0 21 -3 17 -7z m-1483 -826 c0 -8 -4 -15 -10 -15 -5 0 -10
7 -10 15 0 8 5 15 10 15 6 0 10 -7 10 -15z m2460 -424 c0 -5 -7 -12 -16 -15
-14 -5 -15 -4 -4 9 14 17 20 19 20 6z m-87 -86 c-3 -9 -8 -14 -10 -11 -3 3 -2
9 2 15 9 16 15 13 8 -4z m611 -226 c-3 -5 -10 -7 -15 -3 -5 3 -7 10 -3 15 3 5
10 7 15 3 5 -3 7 -10 3 -15z m-167 -144 c3 -9 3 -19 -1 -22 -7 -7 -36 16 -36
28 0 15 30 10 37 -6z m-2907 -5 c0 -5 -4 -10 -10 -10 -5 0 -10 5 -10 10 0 6 5
10 10 10 6 0 10 -4 10 -10z m2861 -138 c-7 -2 -18 1 -23 6 -8 8 -4 9 13 5 13
-4 18 -8 10 -11z m14 -62 c17 -7 15 -9 -12 -9 -18 -1 -33 -6 -33 -13 0 -6 -2
-9 -5 -6 -9 8 6 38 19 37 6 0 20 -4 31 -9z m40 -40 c3 -5 -3 -10 -14 -10 -11
0 -23 5 -26 10 -3 6 3 10 14 10 11 0 23 -4 26 -10z m188 -94 c3 -8 3 -17 0
-20 -7 -7 -33 13 -33 25 0 15 27 10 33 -5z m-3358 -305 c3 -5 1 -12 -5 -16 -5
-3 -10 1 -10 9 0 18 6 21 15 7z m3407 -323 c-7 -7 -12 -8 -12 -2 0 6 3 14 7
17 3 4 9 5 12 2 2 -3 -1 -11 -7 -17z m94 9 c8 3 14 -1 14 -11 0 -19 -5 -20
-31 -5 -11 5 -16 15 -12 22 5 8 8 8 10 0 3 -7 11 -9 19 -6z m-176 -43 c0 -14
-3 -15 -17 -3 -10 7 -20 15 -22 16 -2 2 5 3 17 3 14 0 22 -6 22 -16z m80 -9
c0 -9 -6 -12 -15 -9 -8 4 -15 10 -15 15 0 5 7 9 15 9 8 0 15 -7 15 -15z m82
-23 c4 -12 -1 -18 -13 -19 -13 -1 -19 5 -19 18 0 24 26 25 32 1z m-272 -29 c0
-8 -13 -13 -30 -13 -20 0 -30 5 -30 15 0 10 9 14 30 12 16 -1 30 -8 30 -14z
m280 -13 c0 -5 -4 -10 -9 -10 -6 0 -13 5 -16 10 -3 6 1 10 9 10 9 0 16 -4 16
-10z m32 -35 c0 -5 -5 -11 -11 -13 -6 -2 -11 4 -11 13 0 9 5 15 11 13 6 -2 11
-8 11 -13z m-212 -49 c0 -3 -4 -8 -10 -11 -5 -3 -10 -1 -10 4 0 6 5 11 10 11
6 0 10 -2 10 -4z m200 -47 c0 -5 -4 -9 -10 -9 -5 0 -10 7 -10 16 0 8 5 12 10
9 6 -3 10 -10 10 -16z m17 -55 c-12 -14 -23 -21 -25 -15 -4 13 29 51 39 45 5
-3 -2 -16 -14 -30z m42 -28 c-13 -15 -19 -3 -12 24 6 22 7 22 14 4 3 -10 3
-23 -2 -28z m-115 13 c-3 -5 -10 -7 -15 -3 -5 3 -7 10 -3 15 3 5 10 7 15 3 5
-3 7 -10 3 -15z m108 -75 c30 -19 37 -28 28 -34 -10 -6 -11 -12 -3 -22 5 -7 7
-24 3 -38 l-7 -25 -9 30 -8 30 -6 -33 -5 -34 -24 21 c-14 12 -31 19 -38 17 -7
-3 -13 0 -13 7 0 8 -4 7 -10 -3 -9 -13 -11 -13 -20 0 -5 8 -10 20 -10 27 0 6
-15 13 -32 15 -45 4 -44 31 2 38 19 4 44 11 55 18 30 17 52 14 97 -14z m38 22
c0 -3 -4 -8 -10 -11 -5 -3 -10 -1 -10 4 0 6 5 11 10 11 6 0 10 -2 10 -4z
m-3356 -37 c-3 -5 -10 -7 -15 -3 -5 3 -7 10 -3 15 3 5 10 7 15 3 5 -3 7 -10 3
-15z m3106 -9 c0 -5 -4 -10 -10 -10 -5 0 -10 5 -10 10 0 6 5 10 10 10 6 0 10
-4 10 -10z m-2930 -157 c0 -2 -5 -13 -10 -24 -8 -14 -18 -18 -38 -13 -15 3
-37 7 -49 10 -15 3 -23 0 -23 -10 0 -10 -19 -13 -82 -14 -46 0 -89 -1 -97 -3
-22 -6 -25 27 -4 36 41 17 303 33 303 18z m-236 -214 c-3 -6 -14 -9 -24 -6
-10 2 -24 1 -31 -4 -16 -9 -32 -2 -24 12 4 5 24 9 46 9 26 0 38 -4 33 -11z
m-436 -272 c6 -12 11 -16 11 -9 1 7 6 10 11 7 6 -4 7 -12 4 -18 -4 -7 -4 -9 1
-5 4 4 20 1 34 -7 14 -7 49 -22 76 -31 28 -10 55 -21 61 -26 21 -16 254 -34
254 -20 0 6 8 11 18 11 43 0 138 25 145 38 7 11 12 12 23 2 19 -15 18 -49 -2
-49 -9 0 -13 5 -9 13 4 6 -2 2 -12 -10 -10 -11 -40 -28 -66 -37 -26 -9 -58
-23 -70 -31 -12 -8 -31 -14 -42 -13 -22 0 -68 -15 -131 -43 -23 -11 -53 -19
-66 -19 -14 0 -31 -7 -38 -15 -7 -9 -20 -13 -27 -10 -8 2 -23 0 -33 -5 -16 -9
-18 -8 -14 5 4 10 2 13 -8 10 -35 -14 -127 111 -141 190 -18 98 -18 105 -4 99
8 -3 19 -15 25 -27z m672 -41 c0 -3 -4 -8 -10 -11 -5 -3 -10 -1 -10 4 0 6 5
11 10 11 6 0 10 -2 10 -4z m215 -5 c-15 -14 -65 -25 -65 -14 0 17 12 23 44 23
18 0 26 -4 21 -9z m-175 -64 c9 -3 5 -6 -11 -6 -31 -1 -40 6 -32 26 5 14 8 14
17 1 6 -8 18 -17 26 -21z m1150 -133 c0 -8 -4 -14 -10 -14 -5 0 -10 9 -10 21
0 11 5 17 10 14 6 -3 10 -13 10 -21z m-1576 -179 c3 -8 1 -15 -4 -15 -6 0 -10
7 -10 15 0 8 2 15 4 15 2 0 6 -7 10 -15z m1734 -5 c12 -19 11 -20 -8 -8 -11 7
-20 16 -20 20 0 15 15 8 28 -12z m-1753 -22 c14 -6 25 -20 25 -30 0 -10 6 -27
12 -38 10 -15 10 -22 1 -31 -15 -15 -41 -5 -50 18 -4 10 -13 23 -20 28 -8 6
-16 19 -17 30 -2 11 -9 19 -15 18 -6 -2 -11 2 -11 7 0 14 43 13 75 -2z m374
-61 c30 -13 31 -14 14 -29 -28 -24 -59 -38 -87 -38 -13 0 -26 -4 -28 -9 -4
-14 -87 -31 -94 -20 -3 5 -16 9 -29 9 -13 0 -27 5 -31 12 -5 7 -10 4 -15 -10
-10 -26 -29 -29 -29 -6 0 11 -6 15 -20 11 -15 -4 -20 0 -20 13 0 10 9 22 20
25 11 3 20 10 20 15 0 4 42 6 93 4 78 -3 98 -1 127 16 43 23 41 23 79 7z
m-784 -7 c-3 -5 -13 -10 -21 -10 -8 0 -14 5 -14 10 0 6 9 10 21 10 11 0 17 -4
14 -10z m1716 -152 c-14 -14 -21 -17 -21 -8 0 18 34 54 38 41 2 -6 -6 -20 -17
-33z m-40 -41 c-13 -13 -26 -3 -16 12 3 6 11 8 17 5 6 -4 6 -10 -1 -17z m1446
7 c-3 -3 -12 -4 -19 -1 -8 3 -5 6 6 6 11 1 17 -2 13 -5z m-1514 -43 c16 -6 16
-9 -7 -30 -38 -36 -77 -13 -40 23 17 17 20 18 47 7z m727 -6 c0 -8 5 -15 10
-15 6 0 10 -12 10 -27 0 -20 -3 -24 -9 -14 -5 8 -16 11 -25 8 -19 -8 -22 13
-4 31 9 9 8 12 -4 12 -9 0 -20 5 -23 10 -4 6 5 10 19 10 16 0 26 -6 26 -15z
m-1790 -15 c0 -5 -5 -10 -11 -10 -5 0 -7 5 -4 10 3 6 8 10 11 10 2 0 4 -4 4
-10z m1413 -15 c4 -8 0 -27 -8 -42 -8 -15 -15 -21 -15 -12 0 8 5 20 11 26 13
13 3 36 -12 28 -5 -4 -9 -1 -9 4 0 16 27 13 33 -4z m37 -26 c0 -5 4 -8 9 -5
17 11 39 -5 34 -23 -4 -15 0 -18 19 -14 19 4 118 -31 118 -41 0 -2 -26 -4 -57
-5 -33 0 -60 -6 -65 -13 -6 -10 -11 -11 -28 0 -11 6 -27 12 -35 12 -22 0 -18
18 7 31 l23 12 -23 10 c-22 10 -31 47 -12 47 6 0 10 -5 10 -11z m-444 -21
c-16 -9 -52 -68 -41 -68 3 0 -8 -13 -25 -30 -16 -16 -30 -32 -30 -35 0 -12
-31 -37 -38 -31 -9 10 38 95 59 106 9 5 20 21 23 35 4 14 17 30 29 34 27 11
46 2 23 -11z m881 -6 c3 -13 19 -21 56 -28 33 -6 51 -14 50 -21 -2 -9 12 -13
47 -13 39 0 53 -4 62 -20 7 -11 21 -20 30 -20 27 0 22 -14 -12 -33 -16 -10
-30 -15 -30 -11 0 5 -5 3 -12 -4 -15 -15 -32 -16 -23 -2 3 6 -3 10 -14 10 -12
0 -21 -5 -21 -11 0 -8 -4 -8 -12 -2 -29 21 -116 35 -155 24 -31 -9 -40 -8 -49
4 -13 18 -31 20 -36 4 -3 -8 -11 -8 -28 2 -14 8 -26 14 -28 15 -1 1 0 8 3 16
5 12 14 14 39 8 19 -4 40 -11 47 -16 19 -11 119 -13 119 -2 0 6 6 8 14 5 8 -3
17 0 20 8 3 8 -5 16 -20 19 -14 4 -22 11 -19 16 3 5 1 11 -4 15 -5 3 -14 -3
-20 -12 -5 -10 -13 -14 -18 -9 -4 5 -2 11 5 13 20 7 14 23 -9 23 -11 0 -30 5
-41 11 -17 9 -18 13 -7 20 24 15 61 10 66 -9z m-1817 -42 c0 -5 -2 -10 -4 -10
-3 0 -8 5 -11 10 -3 6 -1 10 4 10 6 0 11 -4 11 -10z m1606 -10 c8 0 14 -7 14
-15 0 -8 -9 -15 -20 -15 -15 0 -20 6 -19 28 0 15 3 21 6 15 2 -7 11 -13 19
-13z m-126 -40 c0 -5 -4 -10 -10 -10 -5 0 -10 5 -10 10 0 6 5 10 10 10 6 0 10
-4 10 -10z m130 -10 c0 -5 -2 -10 -4 -10 -3 0 -8 5 -11 10 -3 6 -1 10 4 10 6
0 11 -4 11 -10z m-830 -97 c0 -10 -25 -44 -55 -75 -30 -31 -55 -51 -55 -43 0
8 3 15 8 16 4 0 27 27 52 59 25 33 46 60 48 60 1 0 2 -8 2 -17z m-510 -130
c24 -19 46 -28 86 -31 41 -3 54 -8 55 -21 0 -9 3 -11 5 -5 5 12 65 4 64 -8 0
-5 0 -12 0 -17 0 -16 -41 -20 -47 -5 -3 8 -14 14 -24 14 -12 0 -16 -5 -13 -15
5 -11 0 -15 -17 -14 -30 0 -109 16 -91 18 10 1 9 5 -3 17 -10 10 -27 15 -45
12 -33 -5 -57 26 -45 61 9 29 37 26 75 -6z m3115 -13 c3 -5 1 -10 -4 -10 -6 0
-11 5 -11 10 0 6 2 10 4 10 3 0 8 -4 11 -10z m-225 -86 c0 -8 -4 -12 -10 -9
-5 3 -10 13 -10 21 0 8 5 12 10 9 6 -3 10 -13 10 -21z m-40 -4 c0 -5 -5 -10
-11 -10 -5 0 -7 5 -4 10 3 6 8 10 11 10 2 0 4 -4 4 -10z m-2864 -46 c-3 -8
-10 -13 -16 -9 -6 3 -5 16 3 32 9 21 13 23 15 9 2 -9 1 -24 -2 -32z m2978 31
c3 -8 1 -15 -4 -15 -6 0 -10 5 -10 11 0 5 -4 7 -10 4 -5 -3 -10 -1 -10 4 0 17
27 13 34 -4z m-3024 -21 c0 -2 -9 -4 -20 -4 -11 0 -20 4 -20 9 0 5 9 7 20 4
11 -3 20 -7 20 -9z m110 -20 c0 -8 5 -12 10 -9 21 13 9 -12 -17 -34 -22 -20
-25 -21 -18 -5 5 11 9 29 9 42 1 25 16 31 16 6z m2870 -1 c0 -14 -19 -38 -25
-32 -8 8 5 39 16 39 5 0 9 -3 9 -7z m61 -4 c11 -5 17 -14 14 -19 -6 -10 -45 9
-45 22 0 11 8 10 31 -3z m59 1 c0 -5 -4 -10 -10 -10 -5 0 -10 5 -10 10 0 6 5
10 10 10 6 0 10 -4 10 -10z m-1182 -12 c-3 -7 -13 -13 -23 -13 -10 0 -20 6
-22 13 -3 7 5 12 22 12 17 0 25 -5 23 -12z m-1719 -22 c25 -4 23 -23 -5 -45
-27 -21 -27 -21 -46 -2 -10 11 -18 24 -18 29 0 16 25 32 40 26 8 -3 22 -7 29
-8z m1761 -57 c0 -22 -5 -39 -11 -39 -5 0 -7 -6 -3 -12 4 -7 -2 -5 -13 5 -17
15 -30 17 -72 11 -43 -6 -51 -4 -51 10 0 9 7 16 15 16 8 0 15 5 15 10 0 17
-20 11 -46 -15 -25 -25 -44 -26 -44 0 0 7 -5 15 -12 17 -6 2 -8 10 -4 16 9 15
46 16 46 1 0 -5 -4 -7 -10 -4 -5 3 -10 2 -10 -4 0 -21 17 -19 45 5 33 28 47
31 38 7 -5 -12 -3 -14 7 -8 10 6 12 4 7 -9 -8 -21 14 -31 51 -21 25 7 25 8 7
15 -19 7 -19 8 -2 15 15 6 15 10 5 23 -10 12 -10 14 0 8 7 -4 12 -2 12 5 0 8
4 8 15 -1 9 -7 15 -29 15 -51z m-1933 19 c-3 -8 -6 -5 -6 6 -1 11 2 17 5 13 3
-3 4 -12 1 -19z m2075 15 c-19 -7 -4 -23 22 -23 13 0 29 -7 36 -15 9 -11 16
-13 24 -5 15 15 23 12 29 -10 3 -11 1 -18 -3 -15 -15 9 -40 -7 -40 -25 0 -14
12 -18 56 -23 69 -7 89 -22 49 -37 -19 -7 -38 -8 -55 -1 -16 5 -33 5 -41 0
-24 -15 -64 -10 -82 11 -9 11 -23 17 -31 14 -8 -3 -17 -1 -20 4 -10 16 50 32
84 22 29 -8 31 -7 28 13 -2 17 -9 22 -30 20 -22 -1 -29 4 -34 23 -7 28 -8 28
-34 12 -16 -10 -23 -10 -37 5 -16 16 -16 17 7 17 14 0 32 5 40 10 8 5 22 9 30
9 10 0 11 -2 2 -6z m-181 -95 c10 -18 9 -20 -6 -14 -10 3 -23 1 -31 -4 -9 -9
-15 -6 -24 10 -10 20 -10 21 8 11 16 -8 21 -7 26 4 7 20 13 19 27 -7z m-1871
2 c0 -5 -6 -10 -14 -10 -8 0 -17 -8 -20 -17 -5 -12 -10 -13 -18 -5 -8 8 -8 15
2 27 14 17 50 21 50 5z m1965 0 c10 -16 -6 -35 -16 -19 -8 12 -11 11 -19 -1
-5 -8 -10 -10 -10 -4 0 12 20 34 31 34 4 0 11 -4 14 -10z m373 -37 c-10 -2
-28 -2 -40 0 -13 2 -5 4 17 4 22 1 32 -1 23 -4z m42 -3 c0 -5 -4 -10 -10 -10
-5 0 -10 5 -10 10 0 6 5 10 10 10 6 0 10 -4 10 -10z m38 -1 c-2 -6 -8 -10 -13
-10 -5 0 -11 4 -13 10 -2 6 4 11 13 11 9 0 15 -5 13 -11z m-578 -29 c0 -18
-19 -11 -30 11 -11 19 -10 20 9 9 12 -6 21 -15 21 -20z m77 4 c2 -10 0 -13 -3
-6 -3 6 -15 12 -27 12 -18 0 -19 2 -7 10 20 13 35 7 37 -16z m74 -6 c11 -11
16 -24 13 -27 -4 -3 -9 0 -11 7 -3 6 -11 12 -19 12 -8 0 -14 7 -14 15 0 21 9
19 31 -7z m69 -28 c-13 -9 -13 -10 0 -10 13 0 13 -1 0 -10 -9 -6 -19 -5 -28 2
-11 9 -11 13 0 19 7 5 20 9 28 9 13 0 13 -1 0 -10z m-65 -30 c3 -5 1 -10 -4
-10 -6 0 -11 5 -11 10 0 6 2 10 4 10 3 0 8 -4 11 -10z m-1035 -50 c0 -11 -4
-20 -10 -20 -5 0 -10 9 -10 20 0 11 5 20 10 20 6 0 10 -9 10 -20z m-316 -161
c-3 -5 -10 -7 -15 -3 -5 3 -7 10 -3 15 3 5 10 7 15 3 5 -3 7 -10 3 -15z
m-1487 -61 c-3 -7 -5 -2 -5 12 0 14 2 19 5 13 2 -7 2 -19 0 -25z m1459 -10 c3
-4 -2 -17 -10 -29 -8 -12 -12 -28 -9 -35 3 -8 -2 -25 -10 -37 -22 -33 -10 -74
29 -104 19 -14 34 -28 34 -32 0 -11 -41 -7 -83 8 -21 7 -41 10 -44 7 -3 -3
-18 1 -32 8 -36 19 -93 36 -119 36 -30 0 -29 33 2 54 16 10 39 14 65 12 49 -5
63 10 24 25 l-28 11 28 24 c32 27 48 30 77 12 15 -9 22 -10 31 -1 16 16 1 36
-22 30 -19 -5 -25 3 -13 16 9 9 74 5 80 -5z m-898 -80 c4 -19 -36 -45 -48 -31
-4 4 -4 18 1 31 10 27 42 27 47 0z m32 -28 c0 -5 -5 -10 -11 -10 -5 0 -7 5 -4
10 3 6 8 10 11 10 2 0 4 -4 4 -10z m-153 -86 c-16 -13 -33 -22 -38 -18 -5 3 5
16 23 28 42 29 52 22 15 -10z"/>
<path d="M3575 9750 c-3 -5 -1 -10 4 -10 6 0 11 5 11 10 0 6 -2 10 -4 10 -3 0
-8 -4 -11 -10z"/>
<path d="M3997 9686 c-3 -8 0 -17 8 -19 15 -7 25 1 25 20 0 17 -26 17 -33 -1z"/>
<path d="M3890 2831 c0 -5 9 -11 19 -14 14 -3 18 -1 14 9 -6 15 -33 19 -33 5z"/>
<path d="M3980 2830 c0 -5 7 -10 15 -10 8 0 15 5 15 10 0 6 -7 10 -15 10 -8 0
-15 -4 -15 -10z"/>
<path d="M431 1704 c0 -11 3 -14 6 -6 3 7 2 16 -1 19 -3 4 -6 -2 -5 -13z"/>
<path d="M2340 1250 c0 -5 5 -10 10 -10 6 0 10 5 10 10 0 6 -4 10 -10 10 -5 0
-10 -4 -10 -10z"/>
<path d="M3355 8230 c-3 -5 1 -10 9 -10 9 0 16 5 16 10 0 6 -4 10 -9 10 -6 0
-13 -4 -16 -10z"/>
<path d="M4430 8090 c0 -5 -9 -10 -20 -10 -11 0 -20 -7 -20 -15 0 -21 30 -19
46 3 16 21 17 32 4 32 -5 0 -10 -4 -10 -10z"/>
<path d="M4240 7881 c0 -6 5 -13 10 -16 6 -3 10 1 10 9 0 9 -4 16 -10 16 -5 0
-10 -4 -10 -9z"/>
<path d="M2120 7420 c-22 -6 -23 -8 -7 -15 11 -4 23 -3 30 4 15 15 7 19 -23
11z"/>
<path d="M3885 7250 c-3 -5 1 -10 10 -10 9 0 13 5 10 10 -3 6 -8 10 -10 10 -2
0 -7 -4 -10 -10z"/>
<path d="M3753 7230 c13 -9 15 -15 8 -24 -11 -14 -4 -73 9 -81 4 -3 14 2 21
11 10 12 10 22 1 46 -6 17 -9 35 -6 39 3 5 1 9 -5 9 -5 0 -18 3 -28 6 -17 5
-17 5 0 -6z"/>
<path d="M1680 7210 c-8 -5 -12 -11 -10 -14 3 -2 14 2 24 10 22 15 10 19 -14
4z"/>
<path d="M2095 7210 c-3 -5 -1 -10 4 -10 6 0 11 5 11 10 0 6 -2 10 -4 10 -3 0
-8 -4 -11 -10z"/>
<path d="M2231 7204 c0 -11 3 -14 6 -6 3 7 2 16 -1 19 -3 4 -6 -2 -5 -13z"/>
<path d="M3220 7200 c0 -5 5 -10 10 -10 6 0 10 5 10 10 0 6 -4 10 -10 10 -5 0
-10 -4 -10 -10z"/>
<path d="M3866 7154 c-3 -9 -6 -26 -6 -38 0 -12 -5 -27 -10 -32 -16 -16 14
-123 65 -239 12 -27 25 -61 28 -75 7 -27 65 -96 73 -87 13 12 16 118 5 131 -9
11 -9 19 0 34 10 16 9 24 -4 43 -10 13 -17 31 -17 41 0 10 -4 18 -10 18 -5 0
-10 5 -10 11 0 6 -11 25 -24 42 -33 44 -66 112 -66 136 0 25 -16 36 -24 15z"/>
<path d="M4060 7001 c0 -11 6 -38 14 -58 7 -21 22 -67 32 -103 20 -70 60 -140
80 -140 14 0 24 -42 30 -125 2 -33 11 -84 21 -115 24 -81 25 -91 7 -105 -15
-11 -15 -12 4 -17 18 -5 20 -10 12 -37 -7 -25 -5 -33 8 -41 16 -9 15 -9 -1
-10 -16 0 -17 -5 -12 -31 10 -47 37 -101 63 -129 l22 -24 0 23 c0 12 4 19 10
16 6 -3 10 -15 10 -26 0 -10 5 -19 10 -19 6 0 10 18 10 41 0 32 -3 40 -15 35
-19 -7 -42 69 -26 88 12 14 10 156 -2 156 -5 0 -7 27 -5 59 1 33 6 57 10 55 5
-3 8 4 8 15 0 10 -5 21 -11 23 -6 2 -13 22 -15 43 -7 90 -40 169 -71 173 -25
4 -73 55 -73 78 0 8 -4 14 -9 14 -5 0 -12 11 -15 25 -4 14 -14 33 -24 43 -9 9
-26 36 -36 60 -22 50 -36 62 -36 33z"/>
<path d="M4401 6827 c-9 -309 -7 -432 5 -547 8 -69 16 -131 19 -137 4 -11 8
-71 20 -313 7 -147 7 -334 -1 -354 -4 -11 -2 -45 4 -76 13 -59 11 -70 -16
-130 -20 -44 -27 -90 -13 -90 17 0 13 -27 -5 -34 -11 -4 -14 -13 -11 -28 4
-13 0 -26 -9 -33 -14 -10 -14 -17 0 -72 9 -33 16 -89 15 -124 0 -35 2 -73 5
-84 2 -12 7 -75 10 -140 4 -66 9 -133 12 -148 5 -23 2 -29 -15 -34 -16 -4 -21
-13 -20 -37 0 -28 1 -29 9 -8 5 12 14 22 19 22 11 0 26 -124 17 -139 -4 -5 -2
-12 3 -15 5 -4 3 -29 -6 -62 -9 -35 -11 -59 -5 -63 5 -3 9 -23 7 -44 -1 -21 1
-39 4 -41 3 -2 6 -47 6 -100 0 -53 3 -96 6 -96 3 0 2 -24 -2 -52 -3 -29 -2
-58 3 -65 6 -7 4 -13 -4 -16 -10 -3 -9 -12 6 -40 14 -27 17 -47 12 -84 -7 -56
-7 -63 -2 -168 3 -44 9 -95 15 -113 8 -27 7 -39 -7 -60 -16 -26 -16 -26 1 -13
15 12 17 12 11 -3 -4 -11 3 -25 20 -41 24 -22 33 -56 27 -102 -1 -7 5 -13 13
-13 10 0 13 -6 10 -15 -4 -8 -1 -15 5 -15 6 0 11 -15 12 -32 0 -27 2 -30 9
-13 7 18 9 18 15 3 4 -9 4 -21 1 -27 -4 -5 -2 -12 3 -15 5 -3 9 -24 9 -46 1
-22 3 -50 6 -63 3 -12 3 -16 0 -9 -3 6 -10 10 -15 6 -14 -9 -10 -21 9 -26 16
-4 18 -22 20 -174 2 -151 4 -172 22 -196 11 -15 23 -41 26 -58 4 -16 10 -30
14 -30 9 0 16 -34 30 -143 5 -43 16 -90 25 -105 17 -32 101 -215 110 -242 8
-23 20 -46 27 -51 10 -7 -22 -229 -34 -229 -4 0 -8 -7 -8 -15 0 -8 -4 -15 -10
-15 -5 0 -10 -4 -10 -9 0 -9 -107 -172 -119 -181 -14 -10 -81 -103 -81 -111 0
-20 25 -6 64 35 78 83 107 118 118 142 21 46 41 24 40 -43 0 -25 -5 -57 -12
-72 -9 -23 -8 -39 9 -89 12 -34 21 -72 21 -84 0 -13 18 -47 40 -77 25 -33 40
-64 40 -82 0 -28 12 -96 51 -279 11 -52 31 -152 44 -222 13 -70 31 -141 40
-157 8 -17 15 -38 15 -48 0 -10 9 -52 19 -93 13 -56 16 -89 10 -130 -4 -30 -8
-70 -8 -87 l-1 -33 1575 0 1575 0 -2 1296 c-3 1266 -3 1297 -22 1308 -45 26
-184 118 -225 148 -133 100 -146 124 -107 201 14 27 24 53 21 57 -3 5 5 16 17
24 19 14 21 19 11 35 -10 16 -9 20 4 25 14 6 14 8 -3 20 -14 11 -21 11 -27 3
-6 -8 -7 -7 -4 3 7 23 -11 50 -33 50 -11 0 -20 7 -20 15 0 8 -6 15 -12 15 -10
0 -9 3 1 9 10 7 8 10 -10 16 -33 10 -69 45 -69 66 0 19 -33 43 -44 32 -3 -3
-15 2 -26 12 -12 11 -38 20 -58 21 -56 3 -82 14 -82 35 0 10 -5 21 -11 25 -6
3 -9 28 -7 58 1 28 0 52 -5 54 -18 6 -26 1 -20 -15 4 -11 3 -14 -5 -9 -7 4
-12 22 -12 40 0 25 -5 35 -20 39 -11 3 -20 12 -20 21 0 13 -11 16 -51 16 -41
0 -50 -3 -45 -15 4 -10 -1 -15 -14 -15 -20 0 -28 15 -11 22 5 2 3 9 -5 16 -8
7 -14 8 -14 2 0 -5 -7 -10 -16 -10 -8 0 -12 -4 -9 -10 3 -6 -4 -10 -16 -10
-22 0 -22 0 -3 23 10 12 22 24 25 27 3 3 8 15 11 27 5 18 -1 23 -36 32 -22 7
-54 13 -71 14 -30 2 -59 29 -83 77 -15 30 -82 57 -82 33 0 -8 -7 -13 -17 -11
-13 2 -19 15 -21 46 -3 39 -1 42 21 42 14 0 28 7 31 16 8 22 8 24 -7 24 -7 0
-39 14 -72 31 -43 22 -69 30 -95 26 -40 -5 -80 10 -80 30 0 7 4 13 9 13 5 0
12 20 15 45 4 24 11 47 17 50 12 8 12 35 -1 35 -5 0 -9 -5 -7 -10 3 -15 -131
-19 -151 -4 -9 6 -22 10 -29 7 -7 -3 -13 2 -13 10 0 8 9 17 20 20 14 4 20 13
20 34 0 27 -20 72 -20 46 0 -20 -18 -15 -22 5 -3 13 -14 17 -53 18 -28 1 -58
5 -67 9 -18 7 -25 51 -9 57 5 2 5 13 1 24 -7 18 -15 21 -54 18 -36 -3 -46 -1
-46 11 0 24 49 100 51 78 0 -4 5 3 10 16 14 34 6 36 -48 14 -60 -25 -136 -19
-141 11 -2 10 0 16 5 13 17 -11 29 37 16 63 -7 14 -13 21 -13 16 0 -6 -5 -5
-11 1 -6 6 -17 9 -23 7 -7 -3 -12 6 -13 18 -1 13 -7 24 -13 26 -5 2 -10 12
-10 22 0 10 -4 22 -10 25 -17 10 -11 36 12 54 27 23 15 44 -20 37 -15 -3 -43
-8 -62 -11 -19 -2 -60 -12 -90 -20 -99 -27 -117 -14 -64 49 28 32 31 42 23 59
-9 15 -6 29 12 64 13 25 30 48 39 51 15 6 30 22 30 33 0 11 -55 18 -66 8 -19
-15 -38 -1 -60 44 -15 30 -26 41 -39 39 -13 -3 -16 1 -12 13 9 22 -20 31 -46
15 -17 -10 -22 -10 -34 5 -12 17 -16 17 -76 1 -73 -20 -89 -16 -141 36 -21 22
-57 46 -78 55 -33 13 -39 19 -33 37 4 12 9 31 12 44 3 12 9 22 14 22 5 0 6 -7
2 -16 -5 -14 -3 -14 15 -3 11 7 18 19 15 26 -3 7 2 13 11 13 9 0 16 -4 16 -9
0 -15 63 -23 72 -9 29 46 -17 71 -102 55 -33 -6 -60 -15 -60 -20 0 -5 -9 -6
-19 -2 -20 6 -118 -20 -135 -36 -6 -5 -21 -9 -35 -8 -15 0 -20 3 -12 6 36 14
127 103 115 111 -6 4 -13 14 -16 23 -7 18 -80 55 -118 60 -14 2 -28 8 -32 13
-10 14 2 35 17 30 7 -3 16 -1 20 5 3 6 1 11 -4 11 -6 0 -11 5 -11 11 0 5 5 7
10 4 6 -3 10 -2 10 3 0 12 -34 42 -48 42 -7 0 -12 4 -12 8 0 4 -12 7 -27 6
-16 -1 -38 -3 -49 -3 -17 -1 -20 -6 -17 -25 6 -30 -11 -41 -30 -21 -9 8 -19
15 -24 15 -16 0 -41 38 -45 66 -6 51 -59 75 -166 75 -59 0 -59 -5 -4 63 14 18
19 32 13 40 -14 18 -3 271 14 313 25 60 -6 120 -52 102 -18 -7 -30 -6 -40 3
-12 10 -18 9 -28 -5 -27 -37 -34 -18 -33 91 1 98 -5 136 -33 210 -5 13 -9 35
-9 50 -1 44 -131 265 -146 249 -2 -2 6 -28 20 -58 48 -110 79 -317 74 -494
l-3 -110 -8 70 c-20 190 -59 389 -88 452 -10 23 -19 47 -19 53 0 6 -5 8 -11 4
-8 -5 -10 -58 -4 -189 5 -129 3 -199 -6 -244 l-12 -63 -13 37 c-6 20 -15 88
-18 152 -4 63 -11 124 -17 134 -5 11 -7 24 -4 29 3 6 1 10 -5 10 -7 0 -10 6
-7 14 7 17 -28 195 -40 207 -5 5 -10 -37 -12 -94z m1503 -1723 c17 -7 22 -54
6 -54 -5 0 -10 -9 -10 -20 0 -16 -7 -20 -30 -20 -17 0 -30 -6 -31 -12 -1 -7
-5 3 -9 22 -7 27 -4 40 12 62 20 28 33 33 62 22z m122 -91 c-4 -4 -11 -1 -16
7 -16 25 -11 35 7 17 9 -9 13 -20 9 -24z m-60 -1319 c-10 -26 4 -64 24 -64 34
0 50 -12 50 -36 0 -28 -16 -30 -62 -8 -31 14 -33 19 -30 57 4 48 9 67 18 67 3
0 3 -7 0 -16z m251 -23 c98 -81 118 -100 111 -107 -13 -12 -178 115 -178 137
0 17 18 9 67 -30z m1343 -265 c0 -11 -19 -15 -25 -6 -3 5 1 10 9 10 9 0 16 -2
16 -4z m-1360 -116 c16 -6 6 -7 -30 -3 -30 3 -57 7 -59 9 -8 7 64 2 89 -6z
m385 -68 c-3 -3 -11 0 -18 7 -9 10 -8 11 6 5 10 -3 15 -9 12 -12z m124 -8 c2
-2 -14 -4 -37 -4 -22 0 -44 5 -47 10 -6 10 73 3 84 -6z m-790 -304 c112 -16
208 -33 213 -38 4 -4 9 -78 11 -163 l2 -154 -70 3 c-38 2 -87 8 -108 13 -22 6
-80 17 -129 25 -50 8 -98 19 -107 24 -13 7 -18 38 -27 157 -6 81 -9 151 -7
156 5 9 -9 11 222 -23z m775 -212 c3 -35 12 -153 20 -263 15 -211 13 -229 -28
-223 -25 4 -34 52 -35 203 -1 55 -6 148 -13 207 -12 114 -6 138 32 138 15 0
19 -11 24 -62z m273 16 c11 -30 -13 -36 -43 -10 l-29 25 33 1 c21 0 35 -6 39
-16z m-53 -95 c36 -21 36 -22 36 -87 0 -82 -25 -251 -38 -264 -17 -17 -39 -2
-46 32 -10 51 -7 340 3 340 6 0 26 -9 45 -21z m-1357 -22 c-3 -8 -1 -20 3 -27
9 -14 -8 -60 -22 -60 -4 0 -9 3 -9 8 -9 58 -8 72 6 72 8 0 15 5 15 10 0 6 3
10 6 10 3 0 4 -6 1 -13z m393 -87 c96 -17 180 -32 187 -35 11 -4 14 -38 28
-269 l6 -99 -63 7 c-110 12 -150 27 -227 84 -41 30 -92 60 -115 67 l-41 12 -9
121 c-10 142 -7 156 31 148 16 -3 107 -19 203 -36z m1136 -119 c4 -35 3 -51
-4 -47 -13 8 -24 69 -16 90 9 24 13 17 20 -43z m118 -252 c35 -41 42 -74 22
-104 l-16 -25 -48 18 c-45 17 -47 20 -50 59 -3 34 1 44 24 62 35 27 37 27 68
-10z m-453 -196 c5 -14 8 -69 7 -122 -3 -95 -3 -96 -29 -99 -14 -2 -30 3 -36
10 -6 7 -13 59 -17 116 -7 100 -6 102 16 112 37 14 48 12 59 -17z m-1011 0 c0
-5 -5 -15 -10 -23 -8 -12 -10 -11 -10 8 0 12 5 22 10 22 6 0 10 -3 10 -7z m10
-183 c0 -38 3 -71 8 -73 4 -3 50 -8 102 -11 87 -6 93 -6 76 9 -11 8 -28 15
-38 15 -35 0 -17 16 37 33 70 21 77 21 102 -3 20 -18 22 -31 23 -132 0 -62 4
-180 9 -263 4 -82 5 -156 3 -163 -3 -10 -15 -12 -41 -7 -80 15 -92 14 -26 -3
l70 -17 7 -95 c13 -188 27 -528 28 -685 l0 -161 -82 -22 c-141 -37 -190 -44
-204 -30 -8 8 -14 60 -18 138 -3 69 -8 157 -11 195 -8 115 -17 348 -20 547 -2
103 -6 191 -9 196 -10 17 -16 85 -8 96 5 6 5 83 2 172 -5 121 -11 167 -22 183
-11 16 -17 19 -21 9 -4 -9 -6 -8 -6 4 -1 9 4 18 11 20 6 2 11 28 12 65 0 34 4
59 8 57 5 -3 8 -36 8 -74z m-33 -112 c-3 -8 -6 -5 -6 6 -1 11 2 17 5 13 3 -3
4 -12 1 -19z m1708 -118 c3 -5 -1 -10 -9 -10 -9 0 -16 5 -16 10 0 6 4 10 9 10
6 0 13 -4 16 -10z m-311 -209 c19 -20 24 -17 -84 -55 -65 -22 -293 -75 -302
-70 -12 8 -9 41 5 51 16 13 108 39 287 82 56 14 76 12 94 -8z m-319 -551 c24
-9 26 -14 23 -62 -3 -47 -5 -53 -23 -50 -37 7 -55 32 -55 79 0 47 7 51 55 33z
m350 -81 c44 -11 95 -25 112 -31 l33 -12 -30 -12 c-17 -7 -30 -20 -30 -28 0
-16 -12 -21 -72 -32 -49 -8 -61 -24 -48 -59 6 -15 9 -29 8 -30 -8 -8 -148 -20
-148 -13 0 4 7 8 15 8 8 0 15 4 15 9 0 5 11 19 25 32 24 24 34 69 15 69 -5 0
-10 11 -10 24 0 13 -7 40 -15 59 -8 20 -15 39 -15 42 0 8 34 1 145 -26z m-335
-199 c0 -16 -47 -11 -54 6 -11 30 -6 34 24 19 17 -9 30 -20 30 -25z m427 -36
c6 -19 -154 -71 -170 -55 -15 15 16 50 53 60 45 12 112 9 117 -5z m-352 -34
c-3 -5 -13 -10 -21 -10 -8 0 -14 5 -14 10 0 6 9 10 21 10 11 0 17 -4 14 -10z
m-75 -35 c0 -10 -10 -15 -30 -15 -34 0 -35 2 -18 29 9 15 16 17 30 10 10 -5
18 -16 18 -24z m40 -104 c0 -12 -28 -22 -34 -12 -3 5 -3 11 1 15 9 9 33 7 33
-3z m295 -153 c7 -7 1 -8 -20 -4 -16 4 -34 12 -40 18 -7 7 -1 8 20 4 17 -4 35
-12 40 -18z"/>
<path d="M5770 1660 c-6 -4 37 -17 97 -29 59 -13 119 -25 133 -28 14 -3 22 -3
19 1 -7 7 -124 39 -201 55 -20 5 -42 5 -48 1z"/>
<path d="M1600 6905 c0 -8 5 -15 10 -15 6 0 10 7 10 15 0 8 -4 15 -10 15 -5 0
-10 -7 -10 -15z"/>
<path d="M1637 6896 c-6 -15 11 -36 29 -36 6 0 14 9 17 21 3 12 3 18 0 15 -3
-3 -14 -1 -23 4 -13 7 -20 6 -23 -4z"/>
<path d="M4011 6532 c-14 -27 -16 -104 -3 -128 6 -12 9 -24 6 -27 -3 -3 4 -11
16 -17 18 -9 21 -19 18 -46 -4 -38 16 -48 27 -14 3 11 10 20 15 20 4 0 2 20
-6 45 -7 25 -10 45 -7 45 4 0 2 5 -5 12 -7 7 -12 20 -12 30 0 26 -24 98 -32
98 -4 0 -12 -8 -17 -18z m26 -58 c-9 -9 -28 6 -21 18 4 6 10 6 17 -1 6 -6 8
-13 4 -17z"/>
<path d="M1230 6505 c0 -8 4 -15 10 -15 5 0 7 7 4 15 -4 8 -8 15 -10 15 -2 0
-4 -7 -4 -15z"/>
<path d="M3290 6490 c-12 -8 -9 -10 13 -10 15 0 27 5 27 10 0 13 -20 13 -40 0z"/>
<path d="M3330 6354 c0 -8 5 -12 10 -9 6 3 10 10 10 16 0 5 -4 9 -10 9 -5 0
-10 -7 -10 -16z"/>
<path d="M1150 6321 c0 -6 5 -13 10 -16 6 -3 10 1 10 9 0 9 -4 16 -10 16 -5 0
-10 -4 -10 -9z"/>
<path d="M3290 6321 c0 -6 4 -11 9 -11 5 0 12 -8 15 -17 3 -11 4 -8 3 6 -2 24
-27 44 -27 22z"/>
<path d="M1172 6270 c0 -14 2 -19 5 -12 2 6 2 18 0 25 -3 6 -5 1 -5 -13z"/>
<path d="M3717 6253 c-12 -11 -8 -23 8 -23 8 0 15 7 15 15 0 16 -12 20 -23 8z"/>
<path d="M4075 6250 c-11 -5 -14 -9 -8 -9 7 -1 15 -12 19 -26 3 -14 12 -25 20
-25 8 0 14 -5 14 -12 0 -6 3 -9 6 -6 3 4 0 17 -7 30 -7 12 -12 31 -10 41 3 19
-4 20 -34 7z"/>
<path d="M3520 6150 c0 -5 5 -10 11 -10 5 0 7 5 4 10 -3 6 -8 10 -11 10 -2 0
-4 -4 -4 -10z"/>
<path d="M4096 6094 c-4 -14 -5 -29 -1 -32 3 -3 5 2 5 11 0 10 4 17 10 17 5 0
10 -26 12 -57 3 -55 4 -58 28 -55 31 5 32 6 24 26 -3 9 -10 14 -15 11 -11 -8
-27 24 -31 65 -5 42 -23 50 -32 14z"/>
<path d="M3555 6090 c-4 -6 7 -10 25 -10 18 0 29 4 25 10 -3 6 -15 10 -25 10
-10 0 -22 -4 -25 -10z"/>
<path d="M2569 6042 c-8 -11 -43 -29 -79 -42 -36 -12 -84 -35 -106 -51 -59
-40 -129 -121 -161 -187 -25 -51 -28 -68 -28 -157 0 -89 3 -106 28 -157 48
-98 139 -163 244 -174 81 -8 86 -10 74 -32 -7 -13 -26 -21 -62 -25 -96 -12
-176 -78 -186 -155 -4 -31 0 -44 22 -70 22 -27 34 -32 69 -32 47 0 118 40 159
89 19 24 33 29 109 39 141 18 225 69 309 189 107 153 114 360 17 528 -35 62
-51 81 -108 126 -59 47 -92 64 -162 79 -32 7 -65 21 -74 32 -22 23 -48 23 -65
0z m27 -169 c7 -47 -2 -348 -13 -436 -7 -60 -24 -70 -93 -57 -60 11 -92 33
-118 80 -64 112 -35 272 67 377 42 44 104 82 133 83 12 0 19 -12 24 -47z m156
8 c53 -33 89 -77 116 -141 69 -163 50 -400 -38 -474 -20 -16 -47 -25 -90 -30
-34 -4 -65 -5 -67 -2 -3 3 0 26 7 51 9 33 21 50 46 66 45 27 84 76 84 103 0
33 -38 78 -60 71 -16 -5 -18 7 -23 132 -3 82 -12 158 -21 187 -25 79 -23 81
46 37z m-276 -793 c10 -15 -63 -79 -82 -71 -33 12 -4 65 41 76 32 8 33 8 41
-5z"/>
<path d="M2509 5847 c-48 -32 -111 -126 -104 -154 3 -13 1 -23 -4 -23 -6 0
-14 -19 -19 -42 -9 -47 4 -110 33 -154 17 -27 70 -54 104 -54 23 0 29 33 36
238 5 125 4 142 -10 142 -9 0 -13 5 -10 10 4 6 9 8 13 6 4 -2 8 9 9 25 3 35
-4 36 -48 6z m1 -62 c7 -8 8 -15 2 -15 -5 0 -15 7 -22 15 -7 8 -8 15 -2 15 5
0 15 -7 22 -15z m-53 -77 c-3 -7 -5 -2 -5 12 0 14 2 19 5 13 2 -7 2 -19 0 -25z"/>
<path d="M2750 5820 c0 -5 3 -10 8 -10 4 0 8 -15 9 -32 1 -29 8 -74 13 -88 1
-3 2 -25 1 -50 0 -37 2 -41 9 -20 l8 25 1 -24 c1 -13 9 -30 19 -37 26 -20 38
-16 14 5 -24 20 -29 60 -10 79 9 9 9 12 0 12 -7 0 -12 -4 -12 -10 0 -5 -4 -10
-9 -10 -6 0 -9 9 -8 20 1 15 6 18 24 14 18 -5 23 -2 23 15 0 11 -10 30 -22 42
-13 12 -16 19 -8 15 8 -4 6 1 -6 11 -12 10 -24 26 -27 36 -7 18 -27 24 -27 7z
m34 -56 c3 -8 2 -12 -4 -9 -6 3 -10 10 -10 16 0 14 7 11 14 -7z m40 -50 c3 -8
2 -12 -4 -9 -6 3 -10 10 -10 16 0 14 7 11 14 -7z"/>
<path d="M2851 5558 c-12 -19 -14 -20 -23 -5 -5 9 -14 17 -20 17 -6 0 -3 -9 6
-19 19 -21 41 -19 50 6 10 24 2 25 -13 1z"/>
<path d="M2861 5483 c0 -6 -4 -20 -7 -30 -5 -14 -4 -15 5 -7 7 7 11 20 8 30
-3 11 -5 14 -6 7z"/>
<path d="M2826 5395 c-3 -9 -3 -22 1 -27 3 -6 1 -8 -5 -4 -6 3 -14 1 -18 -6
-4 -7 -4 -10 1 -6 4 4 14 3 20 -2 9 -8 14 -4 17 14 6 31 -6 55 -16 31z"/>
<path d="M2755 5300 c3 -5 8 -10 11 -10 2 0 4 5 4 10 0 6 -5 10 -11 10 -5 0
-7 -4 -4 -10z"/>
<path d="M2725 5290 c-3 -5 -1 -10 4 -10 6 0 11 5 11 10 0 6 -2 10 -4 10 -3 0
-8 -4 -11 -10z"/>
<path d="M3170 6021 c0 -11 5 -23 10 -26 6 -4 10 5 10 19 0 14 -4 26 -10 26
-5 0 -10 -9 -10 -19z"/>
<path d="M3650 6036 c0 -2 8 -10 18 -17 15 -13 16 -12 3 4 -13 16 -21 21 -21
13z"/>
<path d="M3770 6030 c0 -5 5 -10 11 -10 5 0 7 5 4 10 -3 6 -8 10 -11 10 -2 0
-4 -4 -4 -10z"/>
<path d="M3835 6010 c-8 -26 10 -83 34 -105 28 -24 75 -17 79 13 5 32 -16 79
-42 97 -30 21 -63 19 -71 -5z"/>
<path d="M3225 6010 c-3 -5 1 -10 10 -10 9 0 13 5 10 10 -3 6 -8 10 -10 10 -2
0 -7 -4 -10 -10z"/>
<path d="M3546 6011 c-16 -6 -26 -44 -62 -224 -45 -225 -72 -300 -127 -359
-55 -59 -81 -20 -75 112 3 57 10 98 23 125 28 57 49 53 53 -10 5 -106 19 -120
53 -53 59 116 -42 208 -133 121 -49 -46 -60 -78 -65 -187 -6 -125 -9 -138 -29
-112 -10 15 -14 51 -14 132 0 115 -9 144 -44 144 -26 0 -35 -27 -41 -135 -8
-123 1 -177 41 -238 38 -58 75 -42 108 48 2 6 15 -2 29 -17 14 -16 32 -28 40
-28 7 0 33 17 57 37 27 24 45 33 48 25 5 -15 33 -15 81 -1 l37 11 13 81 c6 45
20 98 29 116 32 65 58 46 41 -30 -13 -54 3 -94 44 -116 28 -14 33 -14 63 2 17
9 37 28 43 41 14 31 25 30 45 -1 24 -36 58 -32 95 10 17 19 34 35 39 35 5 0
19 -11 31 -24 29 -31 74 -39 116 -22 44 19 107 77 130 120 21 39 45 48 45 16
0 -11 -4 -20 -9 -20 -16 0 -41 -31 -41 -51 0 -44 79 -81 94 -43 3 9 6 33 6 55
0 32 3 37 16 32 14 -5 16 -2 10 23 -4 16 -13 34 -20 39 -18 14 -38 79 -36 117
3 51 1 58 -15 58 -27 0 -57 -60 -50 -103 6 -39 -2 -57 -59 -131 -48 -62 -119
-81 -128 -33 -6 36 2 57 23 57 30 0 94 36 117 65 79 100 -17 211 -126 145 -38
-23 -66 -65 -88 -135 -25 -74 -53 -127 -67 -122 -21 7 -19 46 8 127 31 93 30
119 -7 140 -51 28 -62 8 -128 -217 -25 -86 -40 -101 -40 -40 0 47 -29 97 -56
97 -8 0 -17 7 -21 16 -8 22 34 49 77 49 30 0 35 3 38 26 7 60 -55 72 -110 21
-15 -14 -31 -23 -34 -19 -3 3 -1 47 6 97 15 114 9 140 -28 139 -15 0 -36 -4
-46 -8z m582 -221 c3 -35 -38 -104 -66 -108 -25 -4 -26 -1 -11 52 22 80 70
115 77 56z m150 -238 c2 -7 -6 -12 -17 -12 -21 0 -27 11 -14 24 9 9 26 2 31
-12z"/>
<path d="M5015 6010 c-3 -5 -12 -7 -21 -3 -8 3 -23 -4 -34 -17 -22 -25 -27
-45 -8 -34 7 5 9 2 5 -8 -8 -21 28 -31 44 -12 6 8 18 14 25 14 15 0 29 43 19
59 -8 14 -22 14 -30 1z"/>
<path d="M4328 5978 c4 -18 2 -20 -21 -14 -24 6 -27 3 -27 -19 0 -14 6 -25 13
-25 9 0 9 -2 -1 -9 -11 -6 -10 -10 4 -15 15 -6 16 -9 5 -16 -12 -7 -12 -11 1
-24 9 -8 20 -47 26 -86 7 -48 17 -76 29 -86 17 -13 17 -14 0 -8 -15 6 -16 3
-7 -21 5 -14 10 -40 10 -56 0 -31 8 -36 30 -16 8 6 7 3 -3 -9 -18 -22 -24 -59
-7 -49 6 3 10 -1 10 -9 0 -9 5 -16 10 -16 14 0 12 308 -1 312 -9 3 -11 17 -9
72 1 11 -8 32 -20 47 -11 16 -20 35 -20 43 0 7 -6 16 -14 19 -10 4 -12 0 -8
-15z"/>
<path d="M928 5963 c7 -3 16 -2 19 1 4 3 -2 6 -13 5 -11 0 -14 -3 -6 -6z"/>
<path d="M3208 5963 c7 -3 16 -2 19 1 4 3 -2 6 -13 5 -11 0 -14 -3 -6 -6z"/>
<path d="M3700 5921 c0 -5 7 -12 16 -15 14 -5 15 -4 4 9 -14 17 -20 19 -20 6z"/>
<path d="M3775 5920 c-3 -5 -3 -15 1 -22 4 -6 3 -8 -4 -4 -18 11 -25 -15 -8
-32 10 -11 16 -12 16 -4 0 7 -4 12 -10 12 -5 0 -10 4 -10 9 0 5 8 7 18 4 10
-2 24 3 31 11 9 11 10 16 2 16 -6 0 -11 -6 -11 -12 0 -9 -3 -8 -9 2 -6 8 -7
18 -5 22 3 4 3 8 0 8 -3 0 -8 -4 -11 -10z"/>
<path d="M4122 5921 c-11 -7 -10 -9 3 -15 9 -3 23 1 31 9 14 13 13 15 -3 15
-10 0 -24 -4 -31 -9z"/>
<path d="M4160 5900 c0 -5 5 -10 10 -10 6 0 10 5 10 10 0 6 -4 10 -10 10 -5 0
-10 -4 -10 -10z"/>
<path d="M3077 5883 c-18 -18 -6 -74 24 -108 50 -56 90 -38 74 34 -12 54 -73
100 -98 74z"/>
<path d="M3210 5860 c0 -5 5 -10 11 -10 5 0 7 5 4 10 -3 6 -8 10 -11 10 -2 0
-4 -4 -4 -10z"/>
<path d="M5140 5835 c0 -8 7 -15 15 -15 8 0 15 7 15 15 0 8 -7 15 -15 15 -8 0
-15 -7 -15 -15z"/>
<path d="M5185 5841 c-7 -13 3 -17 40 -18 17 0 22 1 13 4 -10 2 -18 9 -18 14
0 12 -27 12 -35 0z"/>
<path d="M5105 5800 c4 -6 11 -8 16 -5 14 9 11 15 -7 15 -8 0 -12 -5 -9 -10z"/>
<path d="M3241 5774 c0 -11 3 -14 6 -6 3 7 2 16 -1 19 -3 4 -6 -2 -5 -13z"/>
<path d="M5500 5668 c0 -63 38 -132 41 -75 3 46 -15 97 -33 97 -4 0 -8 -10 -8
-22z"/>
<path d="M4336 5484 c-11 -48 -43 -70 -137 -98 -91 -26 -315 -60 -464 -71 -83
-6 -277 -32 -420 -56 -147 -25 -312 -100 -509 -231 -89 -60 -276 -215 -276
-229 0 -5 36 -9 79 -9 153 0 310 -52 428 -141 29 -21 56 -39 60 -39 5 0 62 54
128 120 82 82 133 125 164 139 26 10 125 40 221 66 365 97 649 206 692 266 24
32 68 202 60 231 -3 13 -1 19 5 15 7 -5 9 0 6 13 -3 11 -9 20 -13 20 -5 0 -10
8 -12 18 -3 11 -7 7 -12 -14z m-309 -210 c14 -22 15 -32 5 -70 -16 -58 -15
-61 8 -67 42 -11 6 -44 -55 -51 -11 -1 -35 -10 -53 -20 -19 -10 -41 -15 -49
-11 -10 3 -22 -3 -31 -16 -11 -16 -21 -20 -43 -15 -16 3 -29 1 -29 -4 0 -6
-11 -10 -25 -10 -25 0 -32 15 -50 110 -11 59 -16 70 -31 70 -27 0 -25 26 3 58
31 36 48 40 57 15 6 -15 8 -14 20 2 10 14 21 17 51 12 21 -3 46 -2 56 4 13 7
26 6 40 -2 17 -9 25 -8 37 5 25 25 69 20 89 -10z m-457 -45 c0 -12 -7 -27 -15
-33 -20 -15 -8 -56 15 -56 25 0 34 -30 14 -51 -9 -9 -14 -26 -12 -36 4 -21 55
-34 80 -19 12 7 21 7 29 -1 16 -16 3 -45 -19 -41 -11 2 -25 -2 -33 -8 -14 -11
-75 -34 -90 -34 -4 0 -12 12 -17 28 -9 24 -10 25 -11 5 -2 -49 -77 -83 -109
-51 -9 9 -12 7 -12 -10 0 -12 -4 -22 -10 -22 -18 0 -25 -4 -48 -32 -13 -16
-28 -26 -32 -23 -5 3 -11 -4 -15 -15 -18 -58 -75 -67 -105 -17 -23 36 -26 67
-8 85 19 19 36 14 46 -15 9 -25 10 -26 11 -5 1 24 -31 62 -52 62 -33 0 -87 97
-87 157 0 29 41 73 69 73 11 0 27 -7 35 -16 15 -14 16 -13 16 9 0 21 6 26 38
32 20 4 43 12 51 18 10 9 16 7 26 -6 15 -21 25 -22 25 -3 0 29 63 35 92 9 17
-15 18 -15 18 5 0 22 16 28 78 31 26 1 32 -3 32 -20z"/>
<path d="M3975 5243 c-4 -13 -13 -23 -20 -23 -15 0 -20 -13 -30 -72 -6 -33 -5
-37 13 -35 16 1 24 15 37 64 9 34 15 68 12 75 -4 8 -8 5 -12 -9z"/>
<path d="M3868 5196 c-9 -9 -13 -27 -10 -51 5 -43 16 -32 26 28 7 40 5 44 -16
23z"/>
<path d="M3770 5104 c0 -8 11 -14 25 -14 14 0 25 4 25 9 0 5 -11 11 -25 13
-17 4 -25 1 -25 -8z"/>
<path d="M3414 5085 c3 -11 8 -37 11 -58 4 -20 12 -40 17 -43 6 -4 7 8 3 30
-7 37 -7 37 42 51 6 2 9 13 6 23 -4 16 -13 20 -44 18 -34 -1 -39 -4 -35 -21z"/>
<path d="M3160 5074 c0 -15 21 -38 52 -57 36 -23 39 -22 32 11 -9 39 -20 47
-40 31 -14 -11 -18 -11 -30 6 -8 10 -14 14 -14 9z"/>
<path d="M4161 5486 c-7 -8 -26 -18 -42 -21 -16 -4 -31 -11 -34 -16 -4 -5 1
-6 9 -3 9 3 16 1 16 -5 0 -7 20 -10 55 -9 30 1 49 6 42 10 -7 4 -7 8 -2 8 6 0
6 3 -1 8 -6 4 -15 15 -21 25 -8 16 -11 16 -22 3z"/>
<path d="M4205 5480 c10 -11 20 -20 23 -20 3 0 -3 9 -13 20 -10 11 -20 20 -23
20 -3 0 3 -9 13 -20z"/>
<path d="M3920 5471 c0 -5 -17 -17 -37 -26 -44 -21 -56 -35 -43 -50 15 -18
-47 -9 -65 9 -19 19 -21 19 -46 6 -27 -15 -97 5 -131 38 l-28 26 0 -41 c0 -47
-7 -54 -75 -82 -64 -25 -40 -27 115 -6 134 18 150 23 131 34 -10 7 -9 10 3 14
15 6 21 -4 17 -26 -1 -5 4 -5 10 -1 6 4 53 8 103 9 111 2 126 7 148 45 17 29
16 30 -3 30 -11 0 -29 5 -40 11 -17 8 -23 7 -34 -8 -13 -17 -14 -17 -8 5 3 13
1 22 -6 22 -6 0 -11 -4 -11 -9z"/>
<path d="M3771 5446 c-16 -19 -11 -29 8 -17 7 5 12 14 9 21 -3 9 -8 7 -17 -4z"/>
<path d="M4062 5415 c-7 -8 -9 -15 -4 -15 5 0 15 7 22 15 16 19 -1 19 -18 0z"/>
<path d="M4118 5413 c6 -2 18 -2 25 0 6 3 1 5 -13 5 -14 0 -19 -2 -12 -5z"/>
<path d="M3051 5349 c-1 -15 -8 -32 -17 -40 -14 -11 -13 -14 8 -26 l23 -13
-25 5 c-21 4 -31 -4 -62 -45 -21 -27 -34 -51 -30 -54 10 -6 34 8 31 20 -3 20
2 28 10 16 7 -11 20 -8 67 16 48 24 55 30 38 36 -12 3 -26 18 -32 31 -12 26
-4 33 16 13 9 -9 12 -9 12 0 0 7 -4 12 -8 12 -5 0 -13 12 -19 28 l-11 27 -1
-26z m-11 -112 c0 -5 -4 -5 -10 -2 -5 3 -10 14 -10 23 0 15 2 15 10 2 5 -8 10
-19 10 -23z m37 17 c-3 -3 -12 -4 -19 -1 -8 3 -5 6 6 6 11 1 17 -2 13 -5z
m-67 -19 c0 -8 -4 -15 -10 -15 -5 0 -7 7 -4 15 4 8 8 15 10 15 2 0 4 -7 4 -15z"/>
<path d="M711 5246 c-8 -9 -11 -19 -7 -23 9 -9 29 13 24 27 -2 8 -8 7 -17 -4z"/>
<path d="M4235 5059 c-74 -39 -105 -47 -105 -26 0 7 -5 5 -11 -5 -5 -10 -24
-24 -42 -31 -48 -21 -79 -36 -104 -51 -20 -11 -21 -14 -8 -40 8 -16 12 -32 9
-37 -3 -5 -1 -9 5 -9 5 0 12 8 14 18 4 13 5 11 6 -5 0 -13 6 -23 11 -23 6 0
10 -6 10 -14 0 -8 7 -16 15 -20 8 -3 15 -18 15 -33 0 -16 10 -37 23 -49 20
-19 22 -31 22 -117 0 -76 3 -93 13 -85 7 6 16 8 19 4 4 -4 1 -11 -7 -16 -8 -5
-11 -13 -6 -17 5 -4 11 -2 13 5 3 6 9 12 15 12 14 0 38 -27 30 -34 -3 -4 -1
-10 5 -14 7 -4 13 -22 15 -39 1 -20 6 -29 15 -26 7 3 13 -2 13 -11 0 -22 20
-57 49 -82 13 -12 21 -27 17 -33 -10 -16 22 -58 51 -66 19 -4 31 0 46 16 19
20 19 21 1 15 -18 -6 -20 0 -22 79 -1 69 1 85 13 85 18 0 20 27 3 32 -13 5
-13 8 -26 258 -9 161 -12 180 -36 229 -15 29 -25 59 -22 67 3 8 1 26 -5 41 -8
22 -7 30 7 40 37 27 6 18 -61 -18z m32 -15 c-3 -3 -12 -4 -19 -1 -8 3 -5 6 6
6 11 1 17 -2 13 -5z m-272 -124 c3 -5 -1 -10 -9 -10 -9 0 -16 5 -16 10 0 6 4
10 9 10 6 0 13 -4 16 -10z"/>
<path d="M4295 5060 c-3 -5 -1 -10 4 -10 6 0 11 5 11 10 0 6 -2 10 -4 10 -3 0
-8 -4 -11 -10z"/>
<path d="M600 4900 c0 -5 5 -10 10 -10 6 0 10 5 10 10 0 6 -4 10 -10 10 -5 0
-10 -4 -10 -10z"/>
<path d="M4140 4481 c0 -6 4 -13 10 -16 6 -3 7 1 4 9 -7 18 -14 21 -14 7z"/>
<path d="M3790 4295 c0 -25 14 -34 24 -16 8 12 -3 41 -15 41 -5 0 -9 -11 -9
-25z"/>
<path d="M3801 4239 c12 -23 15 -23 22 -5 3 8 -2 16 -14 19 -16 4 -17 2 -8
-14z"/>
<path d="M3812 4170 c0 -14 2 -19 5 -12 2 6 2 18 0 25 -3 6 -5 1 -5 -13z"/>
<path d="M4331 4079 c-8 -24 -8 -36 0 -45 8 -10 8 -18 1 -26 -12 -15 -6 -88 9
-103 18 -18 37 19 42 83 4 54 2 64 -15 76 -11 8 -17 19 -14 25 4 5 2 12 -3 15
-5 3 -14 -8 -20 -25z m29 -113 c0 -3 -4 -8 -10 -11 -5 -3 -10 -1 -10 4 0 6 5
11 10 11 6 0 10 -2 10 -4z"/>
<path d="M3806 4091 c-4 -5 -2 -12 3 -15 5 -4 12 -2 15 3 4 5 2 12 -3 15 -5 4
-12 2 -15 -3z"/>
<path d="M3832 4030 c0 -14 2 -19 5 -12 2 6 2 18 0 25 -3 6 -5 1 -5 -13z"/>
<path d="M3457 3983 c-10 -9 -8 -33 2 -33 5 0 11 9 14 20 5 20 -3 26 -16 13z"/>
<path d="M7430 3840 c6 -11 16 -20 22 -20 6 0 3 9 -7 20 -10 11 -20 20 -22 20
-2 0 1 -9 7 -20z"/>
<path d="M7495 3778 c11 -34 24 -45 35 -28 11 18 -5 50 -26 50 -11 0 -14 -6
-9 -22z"/>
<path d="M7461 3717 c-8 -15 -11 -30 -8 -34 12 -12 29 14 25 38 -3 22 -3 22
-17 -4z"/>
<path d="M3578 3293 c-24 -6 -23 -23 2 -23 11 0 20 7 20 15 0 8 -1 14 -2 14
-2 -1 -11 -3 -20 -6z"/>
<path d="M4030 3220 c0 -5 5 -10 11 -10 5 0 7 5 4 10 -3 6 -8 10 -11 10 -2 0
-4 -4 -4 -10z"/>
<path d="M4086 3161 c-4 -7 -5 -15 -2 -18 9 -9 19 4 14 18 -4 11 -6 11 -12 0z"/>
<path d="M4022 3138 c3 -7 15 -14 27 -14 26 -2 41 -15 24 -21 -15 -5 -18 -23
-4 -23 20 0 21 34 2 52 -23 20 -55 24 -49 6z"/>
<path d="M4065 3040 c3 -5 8 -10 11 -10 2 0 4 5 4 10 0 6 -5 10 -11 10 -5 0
-7 -4 -4 -10z"/>
<path d="M4580 2985 c0 -8 5 -15 10 -15 6 0 10 7 10 15 0 8 -4 15 -10 15 -5 0
-10 -7 -10 -15z"/>
<path d="M4350 2832 c0 -4 16 -6 35 -4 19 2 35 6 35 8 0 2 -16 4 -35 4 -19 0
-35 -4 -35 -8z"/>
<path d="M4110 2769 c0 -5 5 -7 10 -4 6 3 10 8 10 11 0 2 -4 4 -10 4 -5 0 -10
-5 -10 -11z"/>
<path d="M4100 2600 c0 -5 7 -10 15 -10 8 0 15 5 15 10 0 6 -7 10 -15 10 -8 0
-15 -4 -15 -10z"/>
<path d="M4685 2320 c-4 -6 -17 -7 -29 -4 -21 5 -23 3 -18 -23 3 -15 7 -22 9
-15 3 6 13 12 23 12 24 0 50 10 50 20 0 12 -29 20 -35 10z"/>
<path d="M4600 2214 c0 -9 -12 -54 -26 -101 -26 -85 -30 -167 -9 -188 12 -13
55 -17 55 -5 0 5 3 16 7 26 4 12 3 15 -5 10 -7 -4 -12 -2 -12 3 0 6 5 11 10
11 6 0 10 8 10 18 0 10 5 23 10 28 16 16 25 167 11 192 -14 26 -51 30 -51 6z"/>
<path d="M2340 1726 c0 -9 5 -16 10 -16 6 0 10 4 10 9 0 6 -4 13 -10 16 -5 3
-10 -1 -10 -9z"/>
<path d="M4420 1485 c0 -8 5 -15 10 -15 6 0 10 7 10 15 0 8 -4 15 -10 15 -5 0
-10 -7 -10 -15z"/>
<path d="M4383 1452 c-17 -3 -22 -11 -25 -48 -2 -31 1 -44 10 -44 7 0 11 4 8
9 -3 4 3 25 14 46 22 44 22 42 -7 37z"/>
<path d="M3318 1433 c6 -2 18 -2 25 0 6 3 1 5 -13 5 -14 0 -19 -2 -12 -5z"/>
<path d="M3080 1401 c0 -9 33 -21 59 -21 11 0 11 3 1 15 -13 16 -60 21 -60 6z"/>
<path d="M2220 789 c0 -5 5 -7 10 -4 6 3 10 8 10 11 0 2 -4 4 -10 4 -5 0 -10
-5 -10 -11z"/>
<path d="M3200 606 c0 -8 4 -17 9 -20 11 -7 33 18 24 27 -12 12 -33 7 -33 -7z"/>
<path d="M4006 601 c-11 -12 -16 -24 -12 -28 9 -9 39 22 34 37 -2 7 -10 4 -22
-9z"/>
<path d="M3968 539 c-22 -34 -31 -69 -19 -69 12 0 43 68 38 83 -1 5 -10 -1
-19 -14z"/>
<path d="M2012 509 c-15 -24 -15 -26 3 -26 8 0 13 3 10 5 -3 3 0 11 6 18 5 7
6 15 1 17 -4 3 -13 -3 -20 -14z"/>
<path d="M2000 454 c0 -8 -7 -22 -15 -30 -8 -8 -11 -21 -8 -30 4 -11 11 -3 24
26 22 49 22 50 9 50 -5 0 -10 -7 -10 -16z"/>
<path d="M3875 360 c3 -5 11 -10 16 -10 6 0 7 5 4 10 -3 6 -11 10 -16 10 -6 0
-7 -4 -4 -10z"/>
<path d="M3819 294 c-6 -8 -10 -16 -7 -19 6 -7 48 6 48 15 0 16 -29 18 -41 4z"/>
<path d="M3740 253 c-42 -13 -78 -35 -109 -67 l-33 -35 7 -75 7 -76 66 0 67 1
-28 17 c-22 13 -27 23 -24 42 3 14 1 32 -4 41 -7 14 -2 18 25 23 18 4 40 4 47
1 8 -3 23 1 34 9 19 14 19 15 1 35 -11 12 -25 21 -33 21 -7 0 -13 10 -13 23 0
18 2 19 10 7 8 -12 10 -11 10 7 0 25 -8 32 -30 26z"/>
<path d="M3500 203 c8 -3 23 -13 33 -21 13 -11 21 -12 28 -5 18 18 0 33 -39
32 -20 0 -30 -3 -22 -6z"/>
</g>
</svg>
